<?xml version="1.0" encoding="utf-8"?>
<!-- Generator: Adobe Illustrator 24.1.2, SVG Export Plug-In . SVG Version: 6.00 Build 0)  -->
<svg version="1.1" id="Layer_1" xmlns="http://www.w3.org/2000/svg" xmlns:xlink="http://www.w3.org/1999/xlink" x="0px" y="0px"
	 viewBox="0 0 682.46 573.84" style="enable-background:new 0 0 682.46 573.84;" xml:space="preserve">
<g>
	<path d="M600.6,437.28c-4.76,0-9.53,0-14.29,0c-0.06,0.33-0.12,0.65-0.19,0.98c2.77,1,5.54,2,8.31,2.99
		c1.29,0.46,2.66,0.75,3.85,1.38c0.79,0.42,1.33,1.3,1.98,1.98c-0.9,0.22-1.94,0.84-2.66,0.58c-3.75-1.35-7.39-3.01-11.13-4.41
		c-4-1.51-8.05-2.85-12.32-4.35c0.08,4.96,3.88,8.99,8.13,9.8c1.5,0.29,2.8,1.54,4.3,1.88c1.72,0.39,3.58,0.12,5.33,0.41
		c0.56,0.09,0.98,1.05,2,2.25c-5.01,0.33-9.04,0.01-13.04-1.44c-1.72-0.62-3.66-1.1-5.45-0.95c-8.8,0.71-17.24,0.03-24.84-5.06
		c-0.42-0.28-0.94-0.53-1.44-0.58c-6.16-0.68-12.32-1.34-18.49-1.94c-0.67-0.07-1.49,0.11-2.06,0.46
		c-4.93,3.01-11.01,2.05-14.95-2.26c-0.66-0.72-1.92-1.14-2.94-1.22c-6.83-0.53-13.18-2.54-19.11-5.93
		c-0.71-0.41-1.75-0.93-1.88-1.56c-0.93-4.54-4.98-3.76-7.94-4.71c-0.64-0.21-1.58,0.56-2.4,0.86c-0.8,0.29-1.6,0.54-2.41,0.8
		c0.25-0.78,0.5-1.57,0.76-2.35c0.1-0.29,0.24-0.57,0.36-0.85c-0.77-1.29-1.35-2.71-2.33-3.76c-0.74-0.79-1.99-1.59-3-1.57
		c-4.66,0.1-7.92-2.09-10.57-5.67c-1.08-1.47-2.41-2.76-3.3-3.77c-8.53,7.5-12.79,18.23-22.33,24.25
		c-9.15,5.77-18.32,11.49-27.56,17.28c0.64,0.36,1.67,0.76,2.43,1.45c0.43,0.39,0.73,1.39,0.52,1.88c-0.22,0.51-1.42,1.18-1.66,1.02
		c-3.99-2.77-7.72,0.54-11.6,0.46c-3.82-0.07-7.67,1.18-11.48,1.08c-5.1-0.13-10.17-1.02-15.26-1.51c-0.78-0.08-1.6,0.32-2.4,0.33
		c-3.96,0.06-7.93,0.16-11.88-0.01c-0.68-0.03-1.31-1.27-1.97-1.95c0.81-0.36,1.72-1.16,2.43-1.01c7.18,1.51,13.88-1.06,20.77-1.89
		c0.02-0.29,0.04-0.58,0.05-0.87c-1.33-0.12-2.71-0.08-3.99-0.42c-1.43-0.37-2.72-1.32-4.15-1.58c-1.85-0.33-3.86-0.62-5.66-0.25
		c-6.81,1.4-14.02,1.47-19.27-2.66c-3.82-3-9.26-5.54-10.4-11.39c-0.14-0.71-0.77-1.71-0.5-2.07c2.15-2.83,0.77-6.41,2.1-9.34
		c1.11-2.45,0.96-4.2-1.79-5.27c-1.87-0.72-2.53-2.06-1.79-4.03c1.46-3.86,1.91-8.08,5.16-11.24c1.58-1.54,2.07-4.14,3.51-5.88
		c1.53-1.85,3.35-3.9,5.49-4.72c6.52-2.49,11.75-6.3,15.19-12.88c0.91,1.09,1.53,1.82,2.51,3c2.52-3.31,5.06-6.36,7.27-9.63
		c4.19-6.21,7.6-12.81,9.33-20.17c0.74-3.13,2.09-6.25-0.48-9.25c-0.31-0.36-0.2-1.21-0.08-1.79c0.84-4.08,2.01-8.12,2.54-12.24
		c0.69-5.39,0.95-10.84,1.28-16.28c0.32-5.28-0.64-10.31-2.19-15.43c-1.25-4.13-0.56-8.8-1.24-13.15
		c-1.47-9.54-3.26-19.03-4.92-28.54c-0.18-1.04-0.22-2.11-0.54-3.11c-0.88-2.74-2-5.42-2.79-8.18c-1.27-4.42-2.47-8.87-3.49-13.36
		c-0.8-3.54-0.69-7.38-2.04-10.66c-1.46-3.55-0.46-6.97-0.9-10.41c-0.42-3.26-0.91-6.51-1.24-9.78c-0.24-2.39-0.34-4.8-0.38-7.2
		c-0.06-3.94-1.05-7.47-3.28-10.85c-2.06-3.12-3.56-6.63-5.12-10.06c-1.03-2.25-2.5-2.88-4.81-2.19c-1.4,0.42-2.88,0.66-4.34,0.81
		c-4.16,0.45-5.98-1.7-6.98-5.67c-3.19-12.66,1.37-24.9,1.79-37.35c0.18-5.33,3.91-10.53,5.94-15.82c1.39-3.61,2.64-7.28,3.91-10.94
		c1.41-4.07,2.69-8.2,4.2-12.23c0.41-1.1,1.26-2.37,2.25-2.87c8.99-4.51,16.84-10.83,25.56-15.75c1.03-0.58,2.36-0.76,3.57-0.84
		c1.99-0.13,4-0.04,6.37-0.04c-0.13,0.51-0.42,1.62-0.75,2.89c0.76,0.58,1.5,1.58,2.42,1.77c2.91,0.61,4.46,2.57,5.68,4.98
		c3.8,7.57,7.9,15.01,11.31,22.76c6.03,13.7,7.43,28.32,7.57,43.11c0,0.29,0.17,0.58,0.43,1.39c3.46-3.34,6.84-6.39,9.95-9.69
		c2.87-3.05,5.37-6.44,8.19-9.54c0.7-0.76,1.98-1.04,3.04-1.42c3.56-1.26,7.19-2.36,10.69-3.77c0.85-0.34,1.53-1.52,1.92-2.47
		c0.64-1.55,0.97-3.23,1.52-5.15c7.78,3.27,13.98,7.13,19.33,13.57c9,10.84,13.29,23.68,18.48,36.21c1.17,2.83,1.26,6.11,1.9,9.5
		c3.22-1.61,6.2-3.22,9.28-4.56c0.7-0.31,1.99,0,2.67,0.49c1.72,1.25,3.35,2.66,4.83,4.19c1.59,1.64,3.36,3.29,4.34,5.28
		c1.65,3.36,3.04,6.91,4.01,10.53c2.05,7.67,3.92,15.4,5.5,23.18c0.54,2.69-0.04,5.61-0.06,8.42c-0.01,2.84-0.14,5.7,0.13,8.52
		c0.25,2.57,0.93,5.1,1.48,7.63c1.91,8.73,2.37,17.39-1.2,25.87c-1.06,2.51-1.96,5.1-3.2,7.51c-2.94,5.69-6.62,10.68-13.11,12.8
		c-4.29,1.4-8.23,0.84-12.11-1.41c-0.79-0.46-2.53-0.37-3.19,0.21c-2.04,1.79-4.08,3.73-5.53,5.99c-1.11,1.74-1.48,4.01-1.93,6.1
		c-0.75,3.48-1.38,6.99-1.91,10.52c-0.39,2.59-0.52,5.22-0.78,7.82c-0.94,9.4-1.85,18.79-2.83,28.19
		c-0.55,5.31-0.86,10.68-1.89,15.91c-2.46,12.49-7.62,24.08-12.79,35.62c-1.19,2.66-2.63,5.22-4.07,7.76
		c-1.05,1.86-0.66,3.15,1.18,4.1c10.63,5.51,21.66,9.26,33.84,9.95c7.49,0.42,14.91,2.5,22.29,4.16
		c10.45,2.34,20.87,4.81,31.23,7.55c5.16,1.36,10.03,3.83,15.2,5.06c5.98,1.42,12.14,2.67,18.26,2.85
		c8.47,0.24,16.97-0.88,25.46-0.85c7,0.02,14.01,0.75,21,1.37c7.01,0.62,13.98,1.67,20.99,2.21c7.02,0.54,14.07,0.66,21.11,1.02
		c0.82,0.04,1.61,0.44,2.33,1.29c-13.56,0.46-27-0.48-40.64-2.15c0.07,1.14,0.12,1.93,0.18,2.92c-0.69,0.19-1.37,0.56-2.04,0.54
		c-7.35-0.23-14.71-0.5-22.06-0.8c-3.87-0.16-7.75-0.41-11.62-0.62L600.6,437.28z M376.34,209.36c-0.54,0.21-1.09,0.42-1.63,0.62
		c0.68,1.68,1.04,3.61,2.12,4.98c2.18,2.78,2.46,5.06,0.41,8.21c-0.21,0.32-0.37,0.8-0.3,1.15c1.01,4.7,1.84,9.45,3.16,14.06
		c1.89,6.59,4.81,12.96,6.1,19.65c1.59,8.28,3.91,16.6,2.57,25.24c-0.17,1.11,0.23,2.29,0.29,3.44c0.56,10.8,1.92,21.63,1.43,32.39
		c-0.46,9.98-2.83,19.87-4.47,29.78c-1.46,8.82-3.66,17.42-6.89,25.8c-1.3,3.36-2.07,6.73-5.6,8.6c-0.95,0.5-1.64,1.64-2.23,2.62
		c-4.31,7.18-9.8,13.19-16.43,18.36c-2.72,2.12-6.9,4.26-4.96,9.35c0.32,0.85-0.58,2.16-0.92,3.26c-0.19,0.61-0.41,1.21-0.62,1.82
		c0.33,0.19,0.65,0.39,0.98,0.58c5.05-7.24,10.1-14.48,15.14-21.72c0.27,0.09,0.53,0.19,0.8,0.28c-0.31,1.17-0.39,2.49-0.98,3.5
		c-2.41,4.12-5.32,7.99-7.4,12.26c-2.53,5.21-8.84,6.58-11.25,11.79c-0.26,0.56-1.64,0.51-2.21,1.04c-1.02,0.95-2.23,2.02-2.57,3.26
		c-0.28,1.01,0.59,2.33,0.96,3.52c1.02-0.65,2.03-1.31,3.05-1.96c0.17-0.11,0.35-0.18,0.58-0.3c0.67,0.55,1.35,1.1,1.91,1.56
		c3.93-2.88,7.23-6.51,13.09-5.14c-0.48,1.49-0.95,2.94-1.62,4.99c3.71-1.12,7.29-1.6,10.21-3.24c3.14-1.76,5.83-4.45,8.43-7.02
		c4.93-4.86,9.67-9.91,14.47-14.9c2.4-2.5,4.67-5.13,7.19-7.49c0.59-0.56,1.98-0.26,3.01-0.36c-0.4,0.79-0.68,1.69-1.25,2.35
		c-0.74,0.86-1.76,1.49-2.58,2.3c-10.01,9.93-19.8,20.1-30.13,29.69c-2.8,2.6-7.19,3.54-10.93,5.04c-2.32,0.93-4.79,1.48-7.19,2.2
		c0.03,0.49,0.07,0.97,0.1,1.46c3.47,0.68,6.94,1.36,10.41,2.04c-0.13-0.46-0.26-0.92-0.39-1.38c1.65-1.32,3.18-2.85,4.99-3.91
		c3.43-2.02,7.13-2.34,10.86-0.79c1.78,0.74,3.48,1.69,5.4,2.64c7.36-10.72,14.55-21.04,21.56-31.48
		c3.79-5.65,7.23-11.54,10.94-17.25c0.52-0.8,1.68-1.17,2.54-1.74c-0.13,1.03,0.03,2.22-0.44,3.06c-1.29,2.28-2.82,4.42-4.29,6.58
		c-5.77,8.48-11.46,17.01-17.35,25.4c-3.61,5.13-7.54,10.03-11.64,15.44c4.86,1.9,9.8,0.19,14.99,1.2
		c-0.89-1.75-1.56-3.06-2.23-4.37c0.23-0.28,0.46-0.57,0.69-0.85c1.4,0.92,3.29,1.54,4.1,2.84c1.24,1.99,2.41,2.13,4.4,1.47
		c2.46-0.81,5.04-1.28,7.57-1.9c0.19,0.3,0.37,0.6,0.56,0.9c0.35-1.4,0.26-3.21,1.12-4.12c6.39-6.78,12.95-13.4,19.5-20.03
		c4.27-4.33,8.87-8.36,12.85-12.94c3.82-4.39,7.03-9.31,10.51-14c0.56-0.76,1.32-1.44,1.65-2.29c2.31-5.84,4.66-11.66,6.73-17.58
		c1.62-4.64,3.03-9.37,4.22-14.14c1.62-6.5,3.14-13.03,4.33-19.62c1.46-8.07,2.55-16.21,3.74-24.32c0.13-0.89-0.19-1.84-0.27-2.77
		c-0.16-1.73-0.62-3.51-0.38-5.18c0.85-5.89,2.58-11.72,2.76-17.61c0.13-4.45,0.91-8.37,2.95-12.19c2-3.74,1.66-4.38-2.54-5.35
		c-1.65,5.04-2.47,10.42-5.86,14.65c-0.39-0.12-0.77-0.25-1.16-0.37c0.29-1.67,0.57-3.35,0.86-5.02c-0.27-0.21-0.54-0.42-0.81-0.64
		c-0.53,0.6-1.18,1.13-1.55,1.81c-0.63,1.15-0.97,2.48-1.69,3.57c-0.23,0.34-1.28,0.14-1.95,0.19c0.03-0.57-0.14-1.28,0.14-1.68
		c1.82-2.6,0.51-5-0.31-7.57c-0.95,0.81-1.96,1.72-1.98,2.65c-0.14,5.68-4.03,10.02-5.24,15.26c-1.06,4.61-1.87,9.3-2.45,13.99
		c-0.21,1.68,1.02,3.53,0.86,5.24c-0.86,9.15,0.01,18.29-1.62,27.55c-1.96,11.14-4.27,22.04-8.45,32.5
		c-1.43,3.57-3.76,6.78-5.7,10.14c-0.13,0.22-0.5,0.29-0.78,0.44c-0.71-0.62-1.37-1.19-2.23-1.93
		c-7.65,10.87-15.14,21.52-22.63,32.17c-0.39-0.27-0.78-0.54-1.17-0.8c2.27-3.3,4.6-6.56,6.77-9.93c0.67-1.04,0.98-2.35,1.27-3.58
		c0.56-2.38,0.69-4.89,1.51-7.16c3.82-10.56,8.17-20.93,11.63-31.6c2.93-9.05,5.16-18.36,7.2-27.66c2.31-10.57,4.3-21.23,5.96-31.93
		c0.77-4.94,0.17-10.07,0.64-15.08c0.68-7.32,1.43-14.66,2.76-21.88c1.05-5.71,1.85-11.37,1.69-17.18
		c-0.02-0.64,0.93-1.31,1.42-1.97c0.15-0.21,0.27-0.44,0.63-1.02c-1.08,0.11-1.81,0.18-2.74,0.28c-0.43-3.2-0.84-6.25-1.25-9.29
		c-0.31,0.03-0.62,0.06-0.93,0.09c0,1.16-0.02,2.32,0,3.48c0.07,4.2-0.66,4.77-4.78,4.69c-2.01-0.04-2.57-0.92-2.68-2.64
		c-0.07-1.17-0.28-2.33-0.42-3.5c-0.4-0.01-0.8-0.02-1.21-0.02c-0.13,1.74-0.68,3.58-0.31,5.2c0.84,3.63,2.2,7.13,3.21,10.73
		c0.53,1.87,0.09,3.46-1.87,4.51c-0.58,0.31-0.74,1.47-0.99,2.28c-0.3,0.93-0.43,1.91-0.74,2.84c-0.28,0.86-0.99,1.68-0.99,2.51
		c0.06,6.8,0.45,13.6,0.32,20.39c-0.14,7.51-0.64,15.01-1.13,22.51c-0.16,2.5-1.17,4.98-1.12,7.45c0.17,8.57-1.67,16.8-4.82,24.59
		c-2.56,6.34-6.25,12.23-9.5,18.27c-5.4,10.02-13.03,17.84-22.94,23.5c-5.48,3.13-10.97,6.28-16.15,9.86
		c-4.96,3.43-9.49,7.48-14.31,11.13c-0.61,0.46-1.8,0.14-2.73,0.19c0.3-0.93,0.38-2.05,0.96-2.75c0.78-0.94,1.92-1.6,2.95-2.32
		c7.06-4.89,14.14-9.76,21.2-14.65c1.28-0.89,2.49-1.88,3.73-2.82c-0.13-0.19-0.25-0.39-0.38-0.58c-1.49,0.45-2.97,0.9-4.46,1.35
		c-0.17-0.23-0.33-0.46-0.5-0.68c0.38-0.65,0.75-1.3,1.15-1.93c0.45-0.71,0.98-1.37,1.36-2.12c3.78-7.37,7.25-14.89,8.4-23.17
		c0.49-3.5,0.45-7.12,0.21-10.65c-0.23-3.34,0.97-6.36-0.93-10.19c-2.32-4.69-2.37-10.88-2.13-16.36c0.26-6.03,0.51-11.8-2.43-17.29
		c-0.28-0.52-0.05-1.35,0.04-2.02c0.17-1.3,0.75-2.65,0.54-3.88c-0.93-5.55-2.08-11.06-3.16-16.58c-0.04-0.2-0.09-0.43-0.2-0.6
		c-3.26-4.93-3.21-10.8-4.65-16.24c-0.21-0.8-0.38-2.09-0.87-2.26c-2.96-1.01-2.58-3.7-3.12-5.85c-0.89-3.55-1.45-7.19-2.3-10.75
		c-1.54-6.42-3.05-12.86-4.88-19.19C379.28,215.55,377.66,212.5,376.34,209.36z M406.74,356.16c0.27,0.13,0.54,0.27,0.8,0.4
		c3.47-5.65,6.94-11.29,10.41-16.93c0.27-0.44,0.64-0.83,0.9-1.28c1.34-2.31,2.95-4.53,3.93-6.99c1.87-4.67,3.51-9.44,5.01-14.25
		c1.81-5.79,4.06-11.56,4.89-17.5c1.39-10.03,2.97-20.09,1.21-30.36c-1.02-5.95-1.1-12.08-1.28-18.14c-0.12-3.97,0-8.02,0.66-11.92
		c0.84-4.99,0.43-6.51-3.54-9.41c-1.39-1.02-2.27-2.71-3.52-3.95c-0.7-0.7-2.33-1.69-2.47-1.55c-2.82,2.99-5.72,0.71-8.46,0.13
		c-5.49-1.16-5.87-2.18-3.98-7.52c0.5-1.42,0.85-3.11,0.56-4.54c-0.65-3.25-1.95-6.38-2.61-9.63c-1.72-8.48-2.98-16.99,0.41-25.41
		c0.24-0.59,0.03-1.36,0.03-2.25c-3.5,1.66-6.65,3.57-10.07,4.67c-3.22,1.03-5.71,2.31-6.94,5.69c-1.1,3.04-3.62,5.91-3.69,8.9
		c-0.22,8.95,0.04,17.96,0.88,26.87c0.75,8.02,2.29,15.99,3.87,23.91c2.9,14.47,6.1,28.89,9.12,43.34c0.33,1.59-0.02,3.34,0.43,4.87
		c1.42,4.83,3.72,9.48,4.49,14.39c1.08,6.9,1.64,13.99,1.41,20.96C408.89,337.85,407.6,347,406.74,356.16z M429.6,166.19
		c0.61-1.56,0.97-2.83,1.58-3.98c5.13-9.75,10.25-19.5,15.52-29.17c0.65-1.2,2.18-2.8,3.23-2.75c2.76,0.14,4.63,2.63,4.37,5.13
		c-0.33,3.23-0.83,6.45-1.28,9.67c-1.36,9.77-1.93,19.75-4.38,29.24c-1.62,6.26-2.83,12.53-4,18.84c-0.53,2.88-1.04,5.77-1.56,8.66
		c-0.41-0.05-0.81-0.11-1.22-0.16c1.35-15.04,2.71-30.08,4.06-45.11c-7.16,13.57-10.48,28.22-13.16,43.1
		c-0.61-10.28,2.01-20.08,4.11-29.96c-0.4-0.08-0.81-0.17-1.21-0.25c-2.84,12.25-5.69,24.5-8.53,36.76
		c-0.27-0.04-0.54-0.09-0.81-0.13c0.76-7.47,1.51-14.93,2.27-22.4c-0.21-0.15-0.41-0.3-0.62-0.45c-1.24,2-2.23,4.24-3.79,5.96
		c-2.56,2.82-3.27,5.95-2.93,9.59c0.14,1.53,0.44,3.91-0.38,4.53c-3,2.29-1.19,4.91-0.78,7.17c0.56,3.03,3.37,4.8,5.41,4.04
		c4.01-1.49,7.87-3.6,11.99-4.49c6-1.29,12.16-2.08,18.29-2.41c5.61-0.31,10.8,3.89,16.78,1.93c0.78-0.26,2.04,1.43,3.21,1.8
		c3.57,1.12,7.22,2,10.81,3.05c2.36,0.69,4.03-0.43,3.99-2.86c-0.06-3.55-0.08-7.11-0.29-10.66c-0.5-8.14-1.08-16.28-1.73-24.42
		c-0.09-1.07-0.8-2.1-1.22-3.14c-0.43,0.14-0.87,0.27-1.3,0.41c0.24,2.55,0.55,5.1,0.69,7.65c0.31,5.87,0.6,11.74,0.74,17.61
		c0.02,0.78-0.92,1.59-1.41,2.39c-0.47-0.79-1.26-1.55-1.34-2.38c-0.35-3.58-0.49-7.18-0.71-10.77c-0.23-0.02-0.45-0.04-0.68-0.06
		c-0.5,1.99-1.01,3.98-1.51,5.97c-0.31-0.01-0.62-0.02-0.93-0.03c-0.11-11.5,0.26-23.09-5.67-33.53c-0.32,1.14-0.43,2.25-0.31,3.34
		c1.13,9.58,2.32,19.15,3.42,28.73c0.06,0.55-0.47,1.16-0.72,1.75c-0.39-0.48-1.07-0.93-1.13-1.44c-1.33-11.9-2.69-23.79-3.84-35.71
		c-0.48-4.97-2.8-8.74-6.66-12.83c0,1.65-0.11,2.44,0.02,3.2c0.91,5.36,2.12,10.68,2.76,16.08c0.87,7.2,1.46,14.44,1.84,21.68
		c0.1,1.81-1.04,3.69-1.61,5.54c-0.34-0.07-0.69-0.14-1.03-0.21c-0.67-8.51-1.33-17.01-2-25.52c-0.32,0-0.65,0.01-0.97,0.01
		c-0.4,1.21-0.81,2.41-1.44,4.31c-0.33-1.41-0.62-2.09-0.62-2.78c-0.08-6.92,0.18-13.87-0.26-20.77c-0.24-3.67,0.39-7.86-2.23-10.15
		c-0.4-2.28-0.78-3.8-0.9-5.33c-0.07-0.85,0.26-1.74,0.42-2.61c0.77,0.36,1.6,0.61,2.28,1.1c0.58,0.41,0.97,1.08,1.45,1.63
		c0.25-0.15,0.5-0.3,0.75-0.45c-0.72-1.66-1.17-3.5-2.2-4.93c-2.03-2.79-6.13-2.18-7.41,0.83c-0.21,0.49-1.06,0.74-1.64,1.04
		c-3.67,1.94-7.49,3.64-10.95,5.91c-1.36,0.89-3.89,2.4-1.65,5.03c0.27,0.32-0.11,1.41-0.45,1.99c-1.56,2.72-3.14,5.43-4.84,8.06
		c-6.29,9.71-10.45,20.3-13.06,31.5c-0.69,2.96-0.67,6.09-0.98,9.14c0.33,0.07,0.66,0.15,1,0.22c3.46-7.52,6.93-15.03,10.56-22.91
		C431.44,166.1,430.78,166.13,429.6,166.19z M395.06,129.05c-0.39,0.06-0.78,0.12-1.17,0.18c-0.25-0.89-0.66-1.76-0.72-2.66
		c-0.13-2.1,0-4.22-0.14-6.31c-0.62-9.28,0.55-18.77-3.07-27.73c-0.18-0.45,0.04-1.04-0.06-1.53c-0.34-1.74-0.72-3.47-1.1-5.19
		c-0.18-0.8-0.71-1.65-0.56-2.36c0.33-1.56,0.56-2.86-1.23-3.71c-1.67-0.79-3.21-1.43-4.97-0.07c-1.58,1.21-3.26,2.34-5.02,3.26
		c-2.19,1.14-4.17,2.07-2.59,5.19c0.34,0.67-0.53,2.12-1.1,3.06c-4.51,7.45-11.62,13.3-13.59,22.3c-0.02,0.09-0.15,0.15-0.19,0.25
		c-1.27,2.95-2.53,5.9-4.12,9.63c1.04-0.67,1.27-0.74,1.38-0.9c6.4-9.35,13.05-18.56,19.05-28.17c1.9-3.04,5.55-5.74,4.3-10.38
		c-0.15-0.56,1.68-1.89,2.8-2.41c0.38-0.18,1.89,0.93,2.06,1.64c1.32,5.69,2.93,11.39,3.49,17.17c0.83,8.58,0.79,17.24-1.9,25.61
		c-0.48,1.5-1.64,2.79-2.49,4.18c-0.37-0.14-0.75-0.28-1.12-0.42c4.5-12.82,3.57-25.68,1.28-38.56c-0.63,8.3-0.84,16.6-1.43,24.88
		c-0.47,6.57-2.2,12.86-5.05,18.86c-0.97,2.05-1.18,4.5-1.54,6.79c-0.51,3.22-0.76,6.47-1.29,9.69c-0.11,0.67-0.96,1.22-1.48,1.82
		c1.07-16.42-0.06-32.76,3.77-48.63c0.42,0.02,0.84,0.04,1.26,0.07c-0.59,9.05-1.18,18.1-1.77,27.15
		c3.32-4.43,5.66-35.28,3.44-39.39c-1.72,4.08-3.48,7.96-4.99,11.92c-1.99,5.19-3.63,10.52-5.72,15.67
		c-1.42,3.5-3.77,6.65-4.99,10.2c-1.76,5.15-2.8,10.55-4.28,15.8c-0.67,2.37-1.65,4.66-2.48,6.98c-0.3-0.04-0.59-0.07-0.89-0.11
		c-0.07-0.9-0.37-1.85-0.18-2.69c1.38-6.15,2.36-12.46,4.45-18.37c2.39-6.77,5.84-13.17,8.72-19.77c0.87-1.98,1.4-4.11,2.08-6.17
		c-0.34-0.16-0.68-0.31-1.01-0.47c-5.1,7.9-10.22,15.78-15.26,23.72c-1.1,1.74-2.46,3.58-2.75,5.51c-0.53,3.59-0.4,7.28-0.47,10.93
		c-0.06,2.8-0.01,5.59-0.01,8.65c-1.06-0.4-1.48-0.56-1.86-0.7c0.31,1.36,0.72,2.66,0.88,3.99c0.32,2.64,1.65,3.51,4.29,3.14
		c4.68-0.66,9.4-1.12,14.11-1.55c7.23-0.66,14.5-1.24,21.58,0.99c5,1.57,9.89,3.5,14.88,5.1c1.02,0.33,3.14,0.25,3.3-0.18
		c1.67-4.49,3.53-9.01,4.29-13.7c0.36-2.22-1.54-4.81-2.58-7.68c-0.2,1.67-0.24,3.01-0.56,4.28c-0.16,0.64-0.83,1.16-1.27,1.74
		c-0.36-0.72-0.98-1.41-1.04-2.15c-0.35-4.27-0.09-8.64-0.93-12.8c-1.52-7.51-3.51-14.94-5.61-22.32c-1.14-3.99-2.91-7.8-4.39-11.7
		c-0.26,0.1-0.52,0.19-0.78,0.29c0.27,0.99,0.53,1.99,0.8,2.98c3.46,12.62,6.07,25.38,5.63,38.55c-0.1,2.87-1.08,5.73-1.82,8.55
		c-0.14,0.54-1.1,0.88-1.68,1.3c2.41-7.84,1.31-15.3,0.45-22.81c-0.86-7.5-2.46-14.79-4.24-22.06c-0.27,0.05-0.53,0.1-0.8,0.14
		C395.06,114.72,395.06,121.88,395.06,129.05z M462.4,253.11c0.31,0.24,0.63,0.48,0.94,0.73c0.46-0.19,1.01-0.29,1.37-0.6
		c4.73-4.05,10.22-1.91,15.05-1.05c3.51,0.63,6.83,3.65,9.68,6.22c5.49,4.95,11.3,9.31,18.07,12.29c3.02,1.33,4.83,0.59,6.11-2.34
		c1.51-3.44,2.95-6.91,4.39-10.39c0.23-0.55,0.45-1.2,0.37-1.77c-0.82-5.81-1.62-11.63-2.62-17.41c-0.34-1.99-1.22-3.88-1.86-5.82
		c-0.27,0.01-0.54,0.02-0.81,0.03c-1.56,6.26-0.25,13.28-4.75,19.43c-0.08-1.62-0.13-2.63-0.19-3.64c-0.25-0.06-0.51-0.11-0.76-0.17
		c-0.65,1.86-1.31,3.71-1.96,5.57c-0.53-1.53-0.51-2.94-0.3-4.32c0.88-5.7,2.17-11.36,2.66-17.09c0.91-10.74-0.39-21.37-2.85-31.84
		c-0.56-2.37-1.93-4.53-2.64-6.87c-0.34-1.13-0.01-2.46,0.02-3.7c0.97,0.53,2.08,0.91,2.88,1.63c0.57,0.51,0.84,1.45,1.05,2.24
		c0.71,2.74,1.34,5.51,2,8.26c0.25-4.1,2.11-8.31-1.06-12.12c-0.3-0.36,0.13-2,0.42-2.06c0.79-0.15,1.82,0.01,2.48,0.45
		c0.48,0.33,0.52,1.31,0.76,2c1.72,5.07,3.44,10.15,5.16,15.22c0.35-0.09,0.71-0.18,1.06-0.28c-0.44-2.16-0.77-4.36-1.35-6.49
		c-0.62-2.29-1.4-4.55-2.26-6.76c-1.83-4.7-2.85-10.1-8.9-11.52c-1.82-0.43-3.7-0.56-5.75-0.86c0,1-0.07,1.62,0.01,2.22
		c1.48,11.54,3.58,23.05,1.28,34.73c-0.13,0.68,0.18,1.44,0.3,2.17c1.22,7.17,1.06,14.28-1.23,21.21c-0.5,1.51-1.9,2.71-2.89,4.06
		c0.13-3.95,1.06-7.45,1.62-11c0.96-6.07,0.68-8.39-0.84-10.49c-1.16,8.56-0.59,17.47-5.5,25.03c-0.35-0.07-0.7-0.14-1.04-0.21
		c1.45-7.04,2.89-14.09,4.34-21.13c-0.23-0.18-0.47-0.36-0.7-0.53c-1.38,0.88-3.65-0.85-4.37,2.16c-1.29,5.4-2.62,10.8-4.21,16.12
		c-0.6,2-1.23,4.39-3.9,5.03c-0.63-3.31,0.12-6.02,1.23-9.02c1.68-4.52,2.16-9.48,3.16-14.25c-6.22-1.12-6.27-1-7.15,4.34
		c-0.46,2.81-1.33,5.56-2.01,8.33c-0.35-0.08-0.7-0.16-1.05-0.24c0-2.3,0-4.59,0-6.89c-0.34-0.14-0.69-0.28-1.03-0.43
		C470.67,238.58,466.53,245.85,462.4,253.11z M566.7,432.99c-10.7-5.66-64.83-18.78-68.51-16.48
		C520.94,422.42,543.1,430.66,566.7,432.99z M430.65,338.7c-0.29-0.2-0.59-0.41-0.88-0.61c-8.23,11.8-16.45,23.61-24.68,35.41
		c0.24,0.17,0.49,0.34,0.73,0.51C417.8,364.81,425.45,352.61,430.65,338.7z M435.7,141.63c-1.03,0.25-1.28,0.24-1.41,0.36
		c-6.91,6.37-11.18,14.26-13.32,23.34c-0.89,3.78-1.58,7.61-2.57,11.37c-1.78,6.76-1.84,13.51-0.04,20.39
		C415.86,176.22,425.46,159.13,435.7,141.63z M511.75,203.38c-0.06,14.01,3.35,26.97,7.66,39.76
		C518.28,229.72,518.77,215.99,511.75,203.38z M575.2,446.46c-1.46-3-2.45-5.17-3.58-7.26c-0.3-0.55-1.15-1.31-1.57-1.22
		c-2.97,0.67-5.89,1.54-9.23,2.46c1.26,2.06,1.95,4.6,3.2,4.92C567.37,446.22,570.96,446.12,575.2,446.46z M381.6,453.03
		c8.16,1.34,16,0.06,23.79-2.64c-1.58-0.81-3.36-1.96-4.85-1.68C394.18,449.92,387.9,451.55,381.6,453.03z M454.41,408.5
		c0.03,0.1,0.06,0.2,0.09,0.3c-6.42,6.19-12.83,12.39-19.43,18.75c3.71,1.38,5.54-1.16,7.27-3.17c3.06-3.57,5.81-7.41,8.66-11.15
		C452.18,411.68,453.28,410.08,454.41,408.5z M377.5,186.51c0.33,0.01,0.66,0.02,0.99,0.03c0-1.29,0.27-2.65-0.06-3.84
		c-0.5-1.81-1.3-3.56-2.19-5.22c-1.66-3.08,1.43-5.31,1.35-8.11c0-0.17,1.26-0.45,1.96-0.55c0.66-0.09,1.34-0.02,2.01-0.02
		c0.08-0.39,0.16-0.79,0.25-1.18c-1.92-0.48-3.84-0.97-5.74-1.45C373.27,175.39,373.73,180.95,377.5,186.51z M452.2,348.69
		c-0.29-0.06-0.57-0.13-0.86-0.19c-3.35,9.42-6.7,18.83-10.05,28.25c0.25,0.09,0.49,0.17,0.74,0.26
		C446.39,367.93,450.58,358.77,452.2,348.69z M451.22,133.39c-0.32-0.16-0.64-0.32-0.97-0.47c-1.17,1.66-2.34,3.32-3.19,4.52
		c1.07,0.9,2.19,1.41,2.18,1.9c-0.07,3.14-0.22,6.3-0.67,9.41c-0.22,1.56-1.12,3.03-1.71,4.54c0.27,0.23,0.55,0.45,0.82,0.68
		c0.65-0.62,1.8-1.18,1.87-1.86C450.21,145.88,450.69,139.63,451.22,133.39z M433.23,219.68c-1.72,0.88-3.6,1.85-6.12,3.14
		c3.02,2.22,5.39,3.96,7.76,5.7c0.33-0.25,0.66-0.51,1-0.76C435.02,225.17,434.17,222.58,433.23,219.68z M376.6,189.45
		c-3.06,3.81-2.16,13.8,1.17,16.65C377.38,200.57,377.02,195.41,376.6,189.45z M608.16,434.25c7.57-0.28,15.09,2.83,22.71,0.99
		c0.01-0.33,0.01-0.66,0.02-0.99C623.32,434.25,615.74,434.25,608.16,434.25z M483.16,161.33c-1.7-6.94-3.25-13.95-7.84-19.66
		c-0.36,0.16-0.72,0.31-1.08,0.47C477.21,148.53,480.19,154.93,483.16,161.33z M353.26,393.37c-6.11,0.75-9.24,4.44-8.31,10.04
		C347.79,399.98,350.41,396.81,353.26,393.37z M524.47,427.88c-3.78-2.84-15.38-5.58-18.26-3.85
		C512.29,425.31,518.38,426.59,524.47,427.88z M371.72,88.05c-4.37,2.25-10.19,11.42-10.59,16.19
		C364.81,98.61,368.27,93.33,371.72,88.05z M451.68,227.95c0.24-0.09,0.48-0.18,0.73-0.27c0-0.4,0.1-0.84-0.02-1.2
		c-1.1-3.38-2.14-6.79-3.48-10.07c-0.22-0.55-1.81-0.77-2.73-0.71c-0.63,0.04-1.64,0.8-1.69,1.31c-0.05,0.56,0.69,1.52,1.3,1.75
		c2.38,0.9,3.71,2.46,4.22,4.98C450.31,225.2,451.11,226.55,451.68,227.95z M474.14,262.16c-4.04,1.82-4.2,8.1-0.89,11.68
		C473.56,269.9,473.83,266.35,474.14,262.16z M464.7,231.51c2.4-3.74,4.73-7.37,7.45-11.6C466.77,221.72,464.7,225.26,464.7,231.51z
		 M463.11,271.44c0.47-0.03,0.94-0.06,1.4-0.09c0.33-2.34,0.66-4.68,1.04-7.33c-1.91,0.32-3.28,0.55-5.07,0.85
		C461.46,267.31,462.28,269.38,463.11,271.44z M371.73,378.2c4.51,0.29,6.41-2.8,6.13-9C375.86,372.14,373.92,374.98,371.73,378.2z
		 M424.29,437.11c0.21,0.3,0.42,0.6,0.63,0.89c3.46-2.4,6.91-4.8,10.37-7.2c-0.24-0.35-0.49-0.7-0.73-1.04
		C429.66,430.13,427.84,434.85,424.29,437.11z M525.74,439.47c-3.39-0.87-6.42-1.64-9.44-2.41c-0.07,0.31-0.14,0.61-0.21,0.92
		C519.08,440.66,523.16,441.48,525.74,439.47z M457.5,224.76c0.28,0.08,0.57,0.17,0.85,0.25c0.51-1.17,1.07-2.33,1.53-3.52
		c0.38-0.97,0.65-1.99,0.96-2.98c-1.12-0.24-2.23-0.48-3.68-0.8C457.3,220.46,457.4,222.61,457.5,224.76z M392.76,170.24
		c-0.29,2-0.48,3.37-0.8,5.58c2.22-1.3,3.78-2.21,6.12-3.57C395.84,171.4,394.55,170.91,392.76,170.24z M469.51,229.05
		c0.22,0.32,0.45,0.63,0.67,0.95c2.52-0.85,3.63-3.09,5.01-5.07c-0.32-0.31-0.63-0.62-0.95-0.93
		C472.67,225.68,471.09,227.37,469.51,229.05z M405.18,116.15c0.32-0.06,0.65-0.12,0.97-0.17c-1-3.53-2-7.06-3-10.59
		c-0.31,0.09-0.63,0.18-0.94,0.27C403.19,109.15,404.18,112.65,405.18,116.15z M447.03,230.24c0.35-0.1,0.7-0.2,1.06-0.3
		c-0.56-2.47-1.13-4.95-1.69-7.42c-0.49,0.13-0.98,0.27-1.47,0.4C445.63,225.36,446.33,227.8,447.03,230.24z M458.86,284.43
		c0.35,0.05,0.69,0.11,1.04,0.16c0.41-2.44,0.81-4.88,1.22-7.32c-0.47-0.07-0.93-0.14-1.4-0.21
		C459.44,279.51,459.15,281.97,458.86,284.43z M463.7,407.69c0.09-0.58,0.18-1.17,0.27-1.75c-1.33-0.21-2.65-0.41-3.98-0.62
		c-0.07,0.64-0.25,1.82-0.2,1.83C461.09,407.4,462.4,407.53,463.7,407.69z M361.39,390.02c-0.31-0.28-0.62-0.55-0.94-0.83
		c-1.66,1.57-3.33,3.13-4.99,4.7c0.31,0.31,0.61,0.61,0.92,0.92C358.05,393.22,359.72,391.62,361.39,390.02z"/>
	<path d="M64.55,209.85c-1.32-1.92-2.43-4.03-4-5.71c-3.43-3.67-3.37-8.2-3.56-12.7c-0.02-0.5,0.83-1.5,1.21-1.47
		c0.67,0.06,1.51,0.59,1.88,1.18c1.06,1.67,1.94,3.46,2.84,5.23c0.42,0.83,0.72,1.72,1.07,2.59c0.52-0.42,1.04-0.84,1.56-1.25
		c-0.94-2.8-1.94-5.58-2.8-8.41c-1.19-3.91-2.33-7.83-3.33-11.79c-0.19-0.75,0.37-1.69,0.58-2.55c0.9,0.39,2.06,0.55,2.65,1.22
		c2.98,3.39,5.39,6.94,6.43,11.65c0.9,4.09,3.25,7.91,5.35,11.64c0.52,0.92,2.5,1.3,3.85,1.4c1.85,0.14,2.9,0.76,4.02,2.37
		c1.15,1.65,3.24,2.65,4.92,3.94c2.07-2.97,2.22-6.78,0.37-9.41c-0.54-0.77-1.2-1.46-1.79-2.21c-2.57-3.23-2.55-3.43,0.78-6.01
		c-1.74-2.69-3.31-5.56-5.29-8.09c-2.63-3.36-3.05-6.78-2.05-10.89c0.83-3.4,0.89-7.04,0.93-10.58c0.04-3.6,1.24-6.37,4.45-8.08
		c2.95-1.58,3.98-3.63,3.88-7.25c-0.21-7.36,0.52-14.75,0.9-22.13c0.04-0.72,0.16-1.63,0.61-2.09c5.81-5.82,5.85-13.56,6.59-20.86
		c0.87-8.54,0.89-17.18,1.18-25.77c0.12-3.43,0.44-6.93-0.11-10.27c-0.86-5.18-2.41-10.25-3.64-15.38c-0.29-1.19-0.68-2.39-0.73-3.6
		c-0.27-6.18-0.41-12.37-0.65-18.56c-0.14-3.54,1.93-5.54,6.94-6.33c0.52-3,1.05-6.09,1.62-9.35c4.58,1.14,5.69,4.61,6.7,7.8
		c5.22,16.51,10.26,33.08,15.39,49.62c0.27,0.87,0.66,2.14,1.31,2.39c3.76,1.43,4.08,5.1,5.5,8.03c0.64,1.32,0.99,2.77,1.61,4.1
		c1.63,3.48,9.02,7.58,13.12,7.23c-0.12-0.59-0.42-1.2-0.31-1.71c0.16-0.7,0.49-1.69,1.02-1.9c0.53-0.21,1.61,0.18,2.04,0.67
		c1.31,1.49,2.41,3.16,3.59,4.76c9.58-7.08,16.05-1.16,22.89,5.72c0-1.59,0.16-2.54-0.02-3.43c-2.06-10.14-3.36-20.32-1.44-30.62
		c0.16-0.86,1.69-2.22,2.36-2.1c2.43,0.43,4.79,1.34,7.13,2.21c0.36,0.13,0.47,1.04,0.61,1.61c1.71,6.78,3.34,13.58,5.15,20.33
		c0.62,2.32,1.85,4.48,2.51,6.8c2.17,7.61,5.64,14.63,9.49,21.5c0.55,0.99,0.25,2.46,0.35,3.71c-0.27,0.02-0.54,0.04-0.81,0.06
		c-0.81-1.17-1.62-2.35-2.43-3.52c-0.22,0.11-0.45,0.23-0.67,0.34c0.53,1.93,0.95,3.9,1.63,5.77c0.54,1.47,4.8,2.45,6.42,1.34
		c4.4-3.03,8.92-2.15,13.56-0.87c5.95,1.63,11.93,3.13,17.88,4.74c6.77,1.84,13.51,3.81,20.29,5.59c2.69,0.71,5.49,0.98,8.2,1.62
		c1.4,0.33,2.71,1.03,4.07,1.54c5.88,2.21,11.8,4.32,17.63,6.64c6.91,2.76,13.38,6.08,19.35,10.84c7.14,5.7,10.81,12.8,12.34,21.38
		c0.17,0.97-0.73,2.14-1.36,3.8c-0.1-0.52-0.13-0.22-0.01-0.14c3.46,2.26,4.22,5.54,4.18,9.48c-0.04,4.23,0.79,8.46,0.76,12.69
		c-0.02,3.22-1.11,6.43-1.17,9.66c-0.08,3.96,0.27,7.94,0.74,11.88c0.11,0.93,1.34,1.81,2.2,2.56c2.66,2.3,2.87,4.67,0.56,7.3
		c-3.85,4.38-4.86,12.55-2.21,17.63c1.51,2.89,3.03,5.78,4.44,8.71c0.81,1.7,2.55,3.42-0.07,5.25c-0.7,0.49-0.81,1.84-1.19,2.8
		c0.32-0.08,0.65-0.15,0.97-0.23c0.92,3.32,2.26,6.58,2.65,9.96c0.48,4.18,1.62,7.95,3.99,11.38c0.2,0.3,0.63,0.44,0.96,0.65
		c0.33-0.12,0.66-0.23,0.98-0.35c-1.28-5.09-2.55-10.18-3.83-15.27c0.2-0.17,0.4-0.34,0.59-0.51c0.86,1.07,2.17,2.03,2.48,3.24
		c1.19,4.64,2.06,9.36,3.06,14.04c0.22,1.02,0.34,2.12,0.8,3.03c1.82,3.58,2.75,7.21,1.75,11.26c-0.2,0.82,0.32,2.11,0.93,2.79
		c4.04,4.53,8.19,8.95,12.31,13.41c1.63,1.76,3.38,3.43,4.85,5.32c0.48,0.61,0.24,1.78,0.38,3.25c3.5,1.26,5.38,4.65,7.06,8.72
		c1.34,3.26,4.08,5.95,6.19,8.9c0.88,1.23,1.76,2.46,2.63,3.7c-0.17,0.22-0.35,0.44-0.52,0.67c-2.24-0.83-4.43-1.84-6.73-2.45
		c-8.1-2.14-11.65-9.5-17.08-14.7c-1.71-1.64-3.39-3.3-5.17-5.04c-0.85,1.92-1.46,3.69-2.41,5.26c-0.35,0.58-1.47,0.7-2.24,1.03
		c-0.17-0.81-0.7-1.75-0.46-2.42c2.53-7.06,1.74-9.36-4.1-14.51c-2.11-1.86-3.47-4.56-5.28-7.01c0,0.01-0.07-0.31,0.04-0.39
		c2.7-1.98,1.88-3.3-0.29-5.41c-4.41-4.27-8.33-9.06-12.45-13.64c-0.46-0.51-0.88-1.05-1.91-2.28c1.14,9.5,2.18,18.11,3.23,26.85
		c-2.8,0.58-3.66-0.86-3.89-2.78c-0.64-5.51-1.17-11.03-1.74-16.55c-0.04-0.41,0.11-0.85,0.04-1.26
		c-0.94-5.97-1.91-11.94-2.71-16.94c-1.77-0.61-3.1-0.69-3.8-1.4c-1.45-1.47-2.91-3.11-3.77-4.96c-3.34-7.18-8.88-12.03-15.76-15.56
		c-3.64-1.87-5.07-4.78-4.53-8.83c0.49-3.64,1.02-7.3,1.13-10.96c0.06-2.12-0.19-4.51-1.12-6.36c-2.93-5.85-2.8-11.98-2.29-18.19
		c0.05-0.58,0.98-1.48,1.56-1.52c0.63-0.05,1.57,0.59,1.91,1.19c0.37,0.66,0.52,1.75,0.23,2.42c-2.24,5.13-0.8,10.08,1.48,14.48
		c2.03,3.9,1.62,7.52,1.12,11.44c-0.38,3.01-0.47,6.06-0.73,9.09c-0.16,1.81,0.16,2.98,2.15,3.9c2.81,1.29,5.3,3.27,8.51,4.45
		c-1.33-3.44-2.55-6.93-4.03-10.3c-1.33-3.02-1.08-5.86-0.02-8.88c0.57-1.63,0.9-3.5,0.71-5.19c-0.32-2.79,0.57-4.91,2.39-6.86
		c0.61-0.66,1.47-1.63,1.37-2.33c-0.68-4.43-1.57-8.84-2.46-13.23c-0.19-0.91-1.02-1.76-0.99-2.62c0.09-3.24-1.38-3.46-4.15-2.91
		c-6.68,1.32-13.44,2.25-20.15,3.43c-2.92,0.51-2.87,0.97-1.35,3.3c1.11,1.69,1.79,3.75,2.26,5.74c1.81,7.55,3.46,15.13,5.14,22.71
		c0.18,0.83,0.12,1.72,0.17,2.58c-0.32,0.13-0.64,0.25-0.96,0.38c-0.6-0.92-1.48-1.77-1.75-2.79c-1.57-5.88-2.96-11.81-4.48-17.71
		c-0.89-3.45-1.76-6.91-2.88-10.29c-0.69-2.07-2.26-2.5-4.54-2.18c-5.7,0.81-11.48,1.84-17.18,1.62c-8.05-0.3-15.91,0.39-23.83,1.54
		c-3.16,0.46-6.45,0.08-10.45,0.08c0.93,2.34,1.76,3.88,2.15,5.53c1.1,4.69,2.02,9.42,3.01,14.13c0.96,4.59,1.97,9.17,2.85,13.78
		c0.34,1.8,0.32,3.66,0.55,5.48c0.83,6.63,4.57,11.9,8.28,17.12c1.84,2.59,2.77,5.27,3.14,8.38c0.51,4.31,1.42,8.57,2.13,12.85
		c0.08,0.51-0.03,1.05,0.02,1.57c0.49,4.89,1.13,9.76,1.44,14.66c0.23,3.56,0.14,7.15-0.02,10.72c-0.13,2.99-0.58,5.97-0.89,8.95
		c-0.41,0.11-0.81,0.23-1.22,0.34c-0.42-0.91-1.14-1.81-1.19-2.74c-0.08-1.88-0.08-3.85,0.39-5.65c1.26-4.89,0.49-9.55-0.77-14.31
		c-0.71-2.68-0.57-5.58-0.92-8.36c-0.68-5.4-1.78-10.77-2.05-16.18c-0.24-4.92-2.36-8.79-5.06-12.57c-0.12-0.17-0.18-0.39-0.3-0.55
		c-4.03-5.51-5.66-11.63-6.3-18.49c-0.65-7.04-2.92-13.93-4.61-20.86c-0.97-3.96-2.1-7.89-3.37-11.76c-0.24-0.74-1.39-1.6-2.18-1.67
		c-7.01-0.54-14.03-1.01-21.06-1.25c-1.96-0.07-3.95,0.7-6.72,1.25c2.64,2.09,4.53,3.6,6.87,5.46c-1.35,0.45-2.33,1.06-2.62,0.83
		c-3.6-2.98-8.3-0.55-12.11-2.59c-3.39-1.82-6.87-3.6-10.5-4.81c-3.78-1.26-7.77-1.91-11.7-2.69c-5.62-1.11-11.28-2-16.89-3.18
		c-2.76-0.58-5.49-1.43-8.14-2.41c-5.58-2.06-11.09-4.28-16.63-6.43c-1.1,3.22-4.63,3.94-6.29,1.09c-0.61-1.04-0.25-2.64-0.33-3.99
		c-0.35-0.02-0.7-0.04-1.05-0.06c-0.21,0.94-0.62,1.88-0.6,2.81c0.1,4.18,0.51,8.37,0.44,12.54c-0.09,4.79-0.6,9.58-0.88,14.37
		c-0.05,0.92-0.28,2.27,0.22,2.73c2.81,2.57,2.25,5.56,1.65,8.74c-1.08,5.68,2.21,9.86,5.34,13.93c1.73,2.25,4.02,1.5,5.02-1.66
		c1.39-4.38,1.95-8.84-0.13-13.24c-0.49-1.03-0.89-2.11-1.35-3.21c-3.43,3.28-3.9,7.42-1.55,11.69c0.36,0.65,0.22,1.58,0.31,2.38
		c-0.9-0.32-2.1-0.39-2.63-1.02c-2.62-3.1-2.45-9.71-0.16-13.07c2.63-3.86,5.33-7.74,7.31-11.93c1.65-3.5,1.89-7.36-0.23-11.15
		c-1.1-1.97-1.37-4.4-2.06-6.76c5.53,1.43,7.25,5.83,7.43,10.25c0.17,4.16-1.26,8.4-2.16,12.57c-0.17,0.79-1.03,1.69-1.8,2.06
		c-3.33,1.61-2.46,3.45-0.96,6.01c3.57,6.1,3.33,12.48-0.13,18.52c-1.26,2.19-0.67,2.96,1.33,3.8c1.38-2.88,2.65-5.81,4.18-8.59
		c0.99-1.81,2.23-3.54,3.63-5.05c0.58-0.62,1.87-0.58,2.83-0.84c-0.14,1.02,0.07,2.34-0.5,3.01c-2.67,3.14-5,6.3-6.22,10.42
		c-1.56,5.25-1.03,10.38,0.65,15.16c3.39,9.67,3.73,19.44,3.29,29.52c-0.21,4.78,1,9.71,2.1,14.45c0.75,3.24,0.21,5.53-2.51,7.36
		c-2.31,1.55-3.31,3.01-2.26,6.36c1.56,4.93,2.12,10.32-0.49,15.3c-0.37,0.7-1.6,0.94-2.43,1.4c-0.2-0.71-0.81-1.68-0.55-2.08
		c3.46-5.27,1.34-10.48,0.28-15.69c-2.16-0.72-4.81,2.11-5.88-1.16c-0.15-0.45,2.01-1.65,3.49-2.81c-0.09-0.16-0.34-0.93-0.85-1.43
		c-5.46-5.32-6.38-9.98-3.5-17.15c0.31-0.76-0.03-1.9-0.34-2.77c-0.29-0.82-0.92-1.52-1.4-2.27c0.18-0.23,0.37-0.45,0.55-0.68
		c1.23,0.71,2.45,1.42,3.78,2.18c2.06-1.63,2.47-3.29,0.36-5.16c-0.08-0.07-0.16-0.15-0.2-0.24c-0.66-1.46-2.02-4.1-1.86-4.2
		c2.54-1.52,3.26,1.14,4.58,2.36c2.09,1.93,3.12,4.04,1.45,6.94c-1.73,3.01-1.27,3.81,2.71,5.63c0-8.54,0.41-16.88-0.17-25.15
		c-0.3-4.29-2.39-8.44-3.59-12.68c-0.37-1.31-0.75-2.7-0.66-4.03c0.22-3.19-1.25-4.6-4.71-4.8c0.32,1.11,0.72,2.03,0.83,2.99
		c0.09,0.77-0.19,1.59-0.3,2.38c-0.58-0.44-1.48-0.77-1.67-1.33c-0.56-1.66-1.17-3.42-1.15-5.13c0.03-2.33-0.87-3.8-2.46-5.43
		c-2.79-2.84-5.15-6.1-7.61-9.09c-0.72,2.26-2.1,5.04-2.39,7.93c-0.24,2.4-0.03,5.19,3.21,6.43c5.13,1.96,6.85,7.16,9.74,11.2
		c0.29,0.4-0.57,1.64-0.9,2.49c-0.94-0.37-2.29-0.47-2.75-1.16c-1.37-2.08-2.25-4.48-3.59-6.58c-0.7-1.09-1.97-1.81-2.98-2.7
		c-0.38,0.27-0.77,0.54-1.15,0.81c1.28,2.84,2.31,5.82,3.9,8.47c1.5,2.49,3.58,4.63,5.43,6.91c2.7,3.33,2.04,6.27-1.8,8.03
		c-3.99,1.82-3.53,1.65-2.08,5.48c1.49,3.97,2.04,8.32,2.7,12.54c0.05,0.34-2.13,1.24-3.34,1.45c-0.31,0.05-1.48-1.71-1.28-2.31
		c1.57-4.68-0.46-8.82-1.22-13.14c-0.4,0.01-0.8,0.02-1.2,0.03c0,4.94,0.03,9.89-0.01,14.83c-0.01,1.78-0.15,3.57-0.3,5.34
		c-0.24,2.82-1.33,5.89,2.74,7.13c0.66,0.2,1.15,1.19,1.58,1.91c2.06,3.48,4.12,6.96,6.04,10.52c0.49,0.91,0.95,2.45,0.52,3.07
		c-0.48,0.7-2.01,0.98-3.06,0.93c-4.07-0.21-4.77,0.42-3.06,4.17c1.81,3.98,4.71,7.51,6.16,11.59c1.11,3.12,0.91,6.77,0.82,10.18
		c-0.02,0.93-1.66,1.91-2.7,2.67c-0.28,0.21-1.22-0.2-1.63-0.57c-0.24-0.22-0.27-1.07-0.04-1.38c3.3-4.5,1.55-8.85-0.6-12.98
		c-1.63-3.13-3.85-5.96-6.35-8.86c0.36,2.81,0.49,5.68,1.15,8.42c0.75,3.09,0.85,5.47-1.62,8.21c-2.12,2.35-2.81,5.97-4.24,8.97
		c-1.58,3.3-3.23,6.57-4.96,9.8c-1.59,2.96,0.13,4.96,1.45,7.32c0.69-1.31,1.19-2.25,1.69-3.19c0.71,0.99,1.76,1.88,2.06,2.98
		c1.23,4.57,4.12,6.14,9.24,4.08c0.07,1.39,0.54,2.79,0.06,3.67c-0.36,0.67-1.99,1.06-2.95,0.9c-1.93-0.32-3.79-1.09-6.23-1.85
		c-0.99,9.04-1.79,17.81-2.99,26.52c-0.33,2.43-1.79,4.72-2.82,7.04c-0.32,0.72-0.95,1.3-1.65,2.24c0.9,0.17,1.55,0.14,2.01,0.42
		c0.53,0.33,0.89,0.94,1.33,1.43c-0.56,0.35-1.07,0.81-1.67,1.03c-2.23,0.8-4.49,1.5-6.73,2.28c-1.02,0.35-2.01,0.78-3.01,1.18
		c-0.21-1.05-0.41-2.11-0.63-3.24c-3.11-1.32-3.11-1.32-7.08,5.15c1.83-0.69,3.08-1.31,4.4-1.6c0.62-0.14,1.37,0.37,2.07,0.58
		c-0.31,0.67-0.61,1.35-0.96,1.99c-0.08,0.15-0.36,0.21-0.56,0.26c-7.05,1.77-11.24,6.9-14.89,12.65c-1.1,1.73-2.13,3.5-2.89,5.47
		c3.2-2.87,7.1-5.09,8.57-10.3c1.31,0.73,2.56,1.43,3.81,2.13c-0.72,1.02-1.34,2.14-2.19,3.04c-1.87,1.99-3.91,3.81-5.77,5.8
		c-3.73,3.98-8.54,5.74-13.72,6.39c-2.48,0.31-3.75,1.57-4.8,3.47c-0.45,0.82-0.69,1.85-1.34,2.45c-0.55,0.51-1.54,0.55-2.33,0.8
		c0.02-0.75-0.13-1.55,0.08-2.24c0.38-1.21,0.98-2.34,1.85-4.33c-1.58,0.56-2.4,0.6-2.8,1.03c-2.23,2.35-4.97,4.48-6.39,7.27
		c-3.64,7.1-10.53,9.66-16.88,12.95c-1.09,0.56-3.93-0.23-4.56-1.26c-1.13-1.84,1-2.52,2.48-3.07c2.85-1.06,5.71-2.08,8.55-3.14
		c1.91-0.71,3.8-1.41,3.51-4.09c-0.06-0.51,0.38-1.43,0.79-1.57c2.95-1.03,2.61-3.45,2.61-5.75c0-0.53,0.05-1.05,0.02-1.58
		c-0.46-7.84,0.5-9.83,8.55-12.46c11.59-3.79,18.63-11.97,24.09-22.14c2.65-4.93,5.23-9.9,7.95-14.8c1.09-1.96,1.05-3.4-0.84-4.9
		c-0.91-0.72-1.28-2.12-1.89-3.21c0.29-0.22,0.58-0.43,0.87-0.65c1,0.61,1.99,1.22,3.25,1.99c1.15-3.33,2.4-6.41,3.26-9.59
		c1.38-5.05,2.64-10.15,3.67-15.29c0.35-1.73-0.15-3.63-0.27-5.44c-0.09-1.42-0.32-2.41,1.54-3.48c1.33-0.76,1.42-3.7,1.66-5.84
		c-4.51,2.67-6.28,6.9-7.39,11.63c-0.98,4.18-2,8.37-3.42,12.41c-0.54,1.52-2.26,2.62-3.45,3.92c-0.31-0.2-0.62-0.41-0.93-0.61
		c0.17-0.73,0.28-1.47,0.5-2.18c1.45-4.66,3.26-9.25,4.29-14c0.99-4.58,2.43-8.78,6.11-11.76c4.53-3.67,5.25-8.63,5.25-13.9
		c0-2.31-0.44-4.63-0.39-6.93c0.06-2.9,0.19-5.84,0.7-8.69c0.65-3.63,0.46-3.98-2.97-4.79c-3.08-0.73-2.94-3.77-3.6-6.07
		c-0.4-1.38-0.26-2.91-0.39-4.67c-1.08,0.46-1.97,0.84-2.65,1.13c-1.45-1.66-2.6-3.42-4.17-4.62c-0.84-0.64-2.84-0.9-3.58-0.35
		c-7.11,5.36-15.48,5.79-23.77,6c-8.26,0.21-14.06-4.45-17.96-11.32c-5.68-9.98-6.16-21.03-5.7-32.13c0.1-2.36,1.14-4.68,1.78-7
		c0.88-3.23,2.07-6.4,2.63-9.69c0.97-5.75,4.3-9.86,8.26-13.78c0.96-0.95,0.97-2.86,0.76-4.59c0.14-0.15,0.32-0.45,0.43-0.42
		c5.06,1.17,8.1-3.24,12.28-4.4c4.22-1.17,8.51-2.31,12.83-2.73c1.94-0.19,4.11,1.28,6.06,2.25c2.94,1.47,4.09,1.14,4.05-1.99
		c-0.06-5.12-0.48-10.24-1.01-15.33c-0.11-1.09-1.3-2.07-1.99-3.1c-0.64-0.96-1.42-1.86-1.84-2.9c-0.22-0.54-0.01-1.63,0.4-1.94
		c0.4-0.3,1.46-0.14,1.97,0.2c1.16,0.78,2.16,1.8,3.22,2.72C64.1,210.21,64.32,210.03,64.55,209.85z M93.42,176.83
		c-3.14-1.46-6.28-2.94-6.31-7.3c-1.38,1.77-1.69,3.32-0.22,5.09c1.78,2.13,3.53,4,6.56,2.16c-0.36,3.39,1.42,5.38,4.42,6.27
		c7.52,2.24,15.07,4.36,22.63,6.45c0.96,0.27,2.06,0.04,3.1,0.04c-2.69-1.72-5.44-2.69-8.15-3.78
		C108.11,182.8,100.78,179.79,93.42,176.83z M169.36,131.63c-0.1-0.69-0.2-1.39-0.3-2.08c8.76-2.91,17.73-4.72,27.52-3.78
		c-2.75-11.21-7.95-20.58-15.14-29.64c-0.96,4.31-1.82,8.17-2.79,12.55c-1.32-1-1.92-1.46-2.88-2.18c-0.26,1.43-0.5,2.51-0.64,3.61
		c-0.29,2.3-0.38,4.63-0.86,6.88c-0.18,0.83-1.21,1.48-1.86,2.21c-0.57-0.66-1.32-1.23-1.69-1.99c-1.47-3-2.7-6.13-4.28-9.07
		c-0.93-1.74-2.36-3.21-3.56-4.8c-0.82,1.73-1.42,3.62-2.53,5.16c-1.09,1.52-2.69,2.69-4.06,4.01c-1.07-1.2-2.28-2.29-3.15-3.62
		c-0.61-0.93-0.74-2.18-1.1-3.28c-0.67-2.04-1.36-4.07-2.01-6.01c-1.37,1.36-2.52,2.5-3.67,3.64c-1.31-1.39-2.65-2.76-3.92-4.18
		c-0.61-0.69-1.1-1.48-2.08-2.81c-0.3,1.56-0.38,2.27-0.58,2.95c-0.33,1.11-0.75,2.19-1.13,3.29c-1.2-0.44-2.73-0.55-3.54-1.37
		c-1.9-1.92-3.43-4.22-5.18-6.29c-0.86-1.02-1.9-1.9-2.85-2.85c0.04,4.56,0.61,8.66,1.3,12.75c1.18,6.92,2.5,13.82,3.62,20.75
		c0.52,3.22,2.81,4.92,6.51,4.3c-0.43-1.82-0.85-3.62-1.49-6.35c6,2.04,7.8,7.73,13.16,10.42c-0.54-2.9-0.76-5.05-1.35-7.1
		c-1.26-4.44-2.99-8.76-3.98-13.25c-0.68-3.09,0.74-4.29,3.5-2.91c4.95,2.47,10.36,4.81,14.11,8.63c3.08,3.14,4.1,8.33,5.82,12.69
		c0.22,0.57-0.81,1.63-1.26,2.46c-0.68-0.48-1.83-0.85-1.96-1.45c-1.39-6.38-6.08-10.45-10.32-14.78c-1.83-1.87-4.11-3.3-6.18-4.92
		c-0.27,0.2-0.55,0.4-0.82,0.59c0.38,1.52,0.76,3.04,1.12,4.48c1.11-0.57,2.27-1.47,2.55-1.25c0.71,0.56,1.22,1.57,1.46,2.49
		c0.72,2.82,1.47,5.66,1.85,8.54c0.42,3.14,0.45,6.33,0.64,9.45c-1.79-0.12-2.85-0.14-3.88-0.29c-1.19-0.17-2.55-0.17-3.51-0.77
		c-1.39-0.88-2.42-2.31-3.74-3.34c-0.56-0.44-1.87-0.84-2.13-0.57c-2.26,2.34-4.75,1.47-7.33,0.51c-0.84,2.51-1.01,5.4-4.34,5.6
		c-0.66,0.04-1.58-0.14-1.93-0.58c-0.25-0.32,0.22-1.23,0.39-1.88c0.25-0.97,0.84-1.98,0.72-2.89c-0.98-7.4-2.15-14.77-3.16-22.16
		c-1.57-11.54-2.54-23.21-9.53-33.24c-1.19-1.71-2.24-2.19-4.73-1.73c0.26,5.01,0.59,9.98,0.75,14.96c0.13,3.77,1.13,8-0.22,11.2
		c-1.52,3.59-1.17,6.86-1.28,10.33c-0.06,1.99,0.49,4.44-0.46,5.86c-2.31,3.47-4.5,6.83-6.03,10.82c-0.81,2.11-1.44,2.73,0.71,3.95
		c1.85,1.04,3.45,2.52,5.7,4.22c-4.94,1.55-6.33-2.85-10.28-3.56c-0.84,1.95-2.82,4.33-2.63,6.52c0.46,5.23,1.93,10.38,3.04,15.75
		c5.03-0.91,9.82-1.53,14.49-2.66c11.4-2.74,22.77-5.65,34.11-8.63c2.29-0.6,5.34-1.24,6.42-2.91c1.89-2.9,4.43-2.9,7.08-3.43
		c4.46-0.88,8.91-1.85,13.37-2.75c0.71-0.14,1.46-0.07,2.2-0.12c4.05-0.31,8.11-0.47,12.13-0.99c3.74-0.48,7.4-1.5,11.14-1.99
		c1.47-0.19,3.05,0.43,4.58,0.68c-0.06,0.35-0.13,0.71-0.19,1.06c-4.83,0.73-9.66,1.45-14.49,2.18c0.03,0.35,0.05,0.7,0.08,1.05
		c3.1,0.22,6.19,0.62,9.29,0.62c5.03,0.01,10.09-0.61,15.09-0.28c4.46,0.29,8.83,2.05,13.28,2.21c15.84,0.58,31.06,3.48,45.3,10.7
		c0.87,0.44,1.85,0.67,2.78,1c0.11-0.27,0.22-0.55,0.33-0.82c-9.09-5.36-18.95-9.37-28.99-12.18c-10.16-2.84-20.89-3.69-31.36-5.41
		c8.07-1.33,16.11-0.02,24.2,0.66c-11.79-3.83-24.16-2.78-36.19-4.39C193.75,128.19,181.57,129.13,169.36,131.63z M204.27,141.36
		c7.16,1.82,14.39,3.41,21.46,5.51c13.57,4.03,27.88,4.84,41.23,9.69c6.76,2.46,12.32,6.66,16.65,12.39
		c1.28,1.69,0.83,2.9-1.35,3.81c-5.98,2.5-12.16,4.75-17.64,8.11c-3.9,2.39-7.77,3.47-12.09,3.75c-7.87,0.5-15.75,0.9-23.62,1.43
		c-2.93,0.2-5.85,0.94-8.76,0.89c-5.87-0.1-11.73-0.76-17.6-0.86c-14.47-0.25-28.95-0.2-43.42-0.51
		c-6.56-0.14-13.13-0.71-19.67-1.32c-4.79-0.44-9.56-1.15-14.3-1.94c-8.28-1.37-14.95-5.98-20.99-11.41
		c-1.46-1.32-2.13-4.02-2.22-6.13c-0.04-0.88,2.26-2.12,3.69-2.77c3.33-1.49,6.79-2.68,10.16-4.09c0.51-0.21,0.82-0.92,1.8-2.09
		c-5.07,1.19-9.46,1.64-13.33,3.29c-3.76,1.6-8.63,0.77-11.16,5.72c-1.19,2.33-2.7,5.63-0.2,7.01c4.1,2.25,8.33,4.35,12.71,5.96
		c6.01,2.2,12.33,3.58,18.3,5.87c8.43,3.23,17.26,4.36,26.07,5.39c7.99,0.93,16.09,0.98,24.13,1.4c3.46,0.18,6.93,0.53,10.39,0.47
		c5.85-0.1,11.69-0.54,17.54-0.72c7.14-0.21,14.31,0.02,21.42-0.53c7.83-0.6,15.61-1.91,23.43-2.82c1.33-0.16,2.71,0.14,4.07,0.22
		c0.05,0.35,0.1,0.69,0.15,1.04c-0.96,0.37-1.89,0.94-2.89,1.09c-3.73,0.56-7.48,1.04-11.23,1.44c-8.56,0.93-17.11,2.16-25.7,2.58
		c-8.38,0.41-16.81-0.07-25.22-0.1c-3.77-0.01-7.55,0.28-11.32,0.17c-3.99-0.12-7.98-0.46-11.95-0.9c-9.07-1-18.12-2.12-27.18-3.2
		c-1.34-0.16-2.67-0.36-4.01-0.54c1.31,1.19,2.76,2.09,4.33,2.47c5.46,1.34,10.94,2.6,16.45,3.72c8.72,1.78,17.43,3.63,26.21,5.04
		c5.25,0.84,10.62,1.15,15.95,1.25c6.94,0.13,13.89-0.12,20.83-0.33c6.61-0.2,13.25-0.26,19.83-0.9c6.35-0.62,12.64-1.81,18.93-2.91
		c5.66-0.99,11.42-1.74,16.88-3.43c5.63-1.74,11.5-3.34,15.96-7.73c1.48-1.46,3.45-2.45,4.81-3.99c2.92-3.3,5.62-6.79,8.34-10.27
		c0.22-0.28-0.11-1-0.23-1.51c-1.51-6.62-7.65-12.19-15.26-13.47c1.04,0.73,1.77,1.1,2.33,1.66c2.36,2.33,4.99,4.47,6.92,7.12
		c2.35,3.22,1.99,9.87-0.15,11.9c-4.59,4.33-10.28,5.44-16.31,5.42c-0.37,0-0.74-0.52-1.81-1.33c1.94-0.52,3.15-1.04,4.41-1.15
		c4.06-0.35,7.42-2.22,10.46-4.71c0.77-0.63,1.35-1.86,1.45-2.87c0.48-4.89-1.79-8.56-5.8-11.03c-5.69-3.51-11.44-6.96-17.36-10.07
		c-6.93-3.65-14.48-5.52-22.23-6.49c-5.94-0.74-12.05-0.74-17.82-2.17C220.64,140.88,212.57,140.58,204.27,141.36z M242.52,173.93
		c0.01,0.07,0.01,0.14,0.02,0.21c2.29-0.18,4.59-0.29,6.87-0.57c7.25-0.88,13.75-3.65,19.59-7.99c1.32-0.98,1.54-2.27-0.18-2.85
		c-3.26-1.1-6.59-2.1-9.97-2.75c-3.5-0.68-7.1-0.74-10.62-1.34c-7.14-1.22-14.2-2.94-21.37-3.87c-11.35-1.47-22.78-2.43-34.16-3.67
		c-12.59-1.37-24.95-0.55-37.11,3.21c-12.11,3.74-24.29,7.24-36.44,10.83c-1.3,0.39-2.68,0.56-3.93,1.07
		c-0.69,0.28-1.6,1.01-1.64,1.59c-0.04,0.58,0.77,1.47,1.42,1.79c4.48,2.2,8.73,5.07,14.04,5.01c1.66-0.02,3.33,0.16,4.99,0.33
		c9.18,0.92,18.34,2.26,27.54,2.7c9.65,0.46,19.36-0.39,28.99,0.16c12.04,0.69,23.84-0.89,35.69-2.3
		C231.66,174.85,237.09,174.44,242.52,173.93z M39.71,304.1c0.13-0.29,0.27-0.58,0.4-0.87c6.75-0.23,12.49,5.27,19.51,3.6
		c-1.38-0.79-2.9-1.07-4.32-1.6c-0.55-0.21-0.9-0.97-1.34-1.49c0.59-0.31,1.27-0.99,1.74-0.87c2.71,0.73,5.37,1.64,8.04,2.51
		c3.09,1.01,6.18,2.05,9.51,3.16c-0.77-7.41-5.32-12.42-8.71-18.95c-0.95,2.73-1.63,4.68-2.31,6.63c1.28,0.47,2.08,0.76,2.89,1.05
		c-0.52,0.85-1.08,1.1-1.65,1.16c-0.88,0.09-1.83-0.15-2.66,0.09c-4.56,1.29-8.87,1.48-12.6-2.14c-0.98-0.95-2.05-1.84-3.22-2.53
		c-7.96-4.68-10.23-12.64-12.16-20.82c-0.09-0.38-0.09-0.86,0.05-1.22c1.83-4.71,4.12-8.96,8.61-11.91
		c4.2-2.76,11.16-3.53,14.87-0.25c4.62,4.1,10.08,6.63,15.34,9.59c1.07,0.6,2.43,2.31,2.25,3.23c-1.02,5.31,3.85,7.58,4.98,11.71
		c0.35-0.12,0.7-0.24,1.05-0.36c-2.2-8.42-4.4-16.83-6.61-25.26c-1.08,3.55-2.74,2.24-4.37-0.08c-0.94,0.89-1.58,1.84-2.47,2.25
		c-0.79,0.36-1.85,0.13-2.78,0.16c0.25-0.8,0.35-1.71,0.8-2.38c0.63-0.95,1.52-1.73,2.01-2.26c-1.23-1.38-2.25-2.19-2.83-3.24
		c-2.11-3.83-3.95-7.82-6.18-11.57c-0.57-0.96-2.2-1.29-3.35-1.91c-0.37,0.5-0.74,1.01-1.12,1.51c0.89,0.54,2.03,0.88,2.61,1.65
		c1.97,2.62,3.83,5.33,5.51,8.14c0.42,0.7,0.03,1.89,0.01,2.86c-0.89-0.04-2.05,0.25-2.6-0.2c-0.74-0.6-1.39-1.77-1.41-2.7
		c-0.06-3.09-4.45-8.57-8.35-9.24c0.89,1.38,1.44,2.38,2.13,3.28c0.79,1.02,1.95,1.84,2.47,2.97c0.35,0.76-0.14,1.91-0.25,2.88
		c-0.74-0.61-1.78-1.06-2.18-1.85c-2.03-3.93-5.02-6.72-9.07-8.37c0.63,0.93,1.67,1.41,2.37,2.2c1.71,1.93,3.37,3.93,4.79,6.08
		c0.32,0.49-0.45,1.7-0.71,2.58c-0.65-0.6-1.47-1.09-1.92-1.81c-0.96-1.53-1.72-3.17-2.56-4.77c-0.26,0.14-0.52,0.28-0.78,0.42
		c0.05,0.28,0.05,0.57,0.16,0.82c1.83,4.21,1.34,4.92-3.26,5.28c-0.98,0.08-1.95,0.76-2.84,1.29c-1.06,0.64-2.04,1.43-3.26,2.31
		c-1.25-4.85-4.52-7.56-7.33-6.49c1,1.63,1.86,3.34,3.02,4.82c1.2,1.54,2.82,2.75,3.97,4.32c0.33,0.45-0.34,1.64-0.55,2.49
		c-0.84-0.34-1.76-0.57-2.48-1.08c-0.35-0.25-0.31-1.05-0.54-2.02c-1.66,1.82-2.68,3.14-0.81,5.08c0.43,0.44,0.3,2.29,0.11,2.35
		c-4.05,1.14-1.89,3.9-1.6,6.05c-1.03,0.9-1.97,1.72-3.21,2.79c1.93,1.22,3.29,2.51,4.9,2.98c1.88,0.55,2.12,1.62,1.67,3.04
		c-0.5,1.59-1.35,3.07-1.97,4.62c-0.67,1.66-1.26,3.35-1.89,5.03c0.23,0.14,0.47,0.27,0.7,0.41c-1.08,0.45-2.17,0.9-3.33,1.39
		c4.19,5.26,5.59,4.95,7.27,2.65c-0.84-1.53-1.61-2.93-2.38-4.34c0.3-0.19,0.59-0.38,0.89-0.57c2.32,1.47,4.73,2.83,6.91,4.48
		c0.73,0.55,1.28,1.88,1.19,2.78c-0.08,0.84-1.09,2.15-1.77,2.2c-0.75,0.05-1.58-1.1-2.57-1.88c-1.65,0.76-3.68,1.62-5.62,2.66
		c-0.52,0.28-1.14,1.45-0.98,1.68c0.43,0.59,1.24,1.16,1.94,1.22c0.77,0.07,1.58-0.58,2.4-0.67c1.25-0.13,2.53-0.03,3.8-0.03
		c0.01,0.43,0.03,0.87,0.04,1.3c-2.82,1.17-5.08,4.36-9.03,2.03c1.53,1.26,3.76,1.77,4.57,3.12c2.58,4.3,6.42,2.49,9.85,2.5
		c0.65,0,1.79-1.05,1.85-1.68c0.07-0.84-0.58-1.86-1.17-2.59C41.29,304.86,40.42,304.54,39.71,304.1z M298.74,213.76
		c-0.35,0.12-0.7,0.23-1.05,0.35c0.37,1.53,0.51,3.17,1.17,4.55c1.35,2.79,0.74,4.96-1.31,7.11c-0.97,1.01-1.88,2.35-2.17,3.68
		c-0.56,2.56-0.52,5.25-0.99,7.84c-0.81,4.46,0.47,8.6,2.31,12.42c1.56,3.23,3.55,6.59,6.23,8.85c3.65,3.08,6.61,6.29,7.78,10.95
		c0.98,3.91,1.86,7.86,2.83,11.77c0.13,0.54,0.42,1.09,0.78,1.51c0.97,1.12,2.05,2.14,3.04,3.24c1.21,1.35,2.37,2.75,3.55,4.13
		c0.23-0.13,0.46-0.26,0.69-0.4c-2.7-10.59-5.4-21.18-8.09-31.77c0.28-0.08,0.55-0.16,0.83-0.24c0.77,0.73,1.53,1.46,2.3,2.19
		c0.31-0.08,0.61-0.17,0.92-0.25c-0.16-2.94-0.32-5.88-0.49-8.82c-0.15-2.49-0.73-4.58-3.09-6.16c-3.01-2-3.12-4.48-0.95-7.51
		c0.4-0.57,0.85-1.28,0.86-1.92c0.04-4.1,0.03-8.2-0.11-12.3c-0.09-2.67-1.1-4.58-3.9-5.82c-3.29-1.45-6.78-3.12-7.97-7.07
		c-0.9-3-1.54-6.09-2.57-9.04c-0.32-0.91-1.52-1.52-2.31-2.26c-0.66,1.14-2.16,2.69-1.84,3.35c1.9,3.89,3.38,8.76,6.6,11.1
		c6.79,4.93,8.24,11.02,7.48,18.63c-0.64,6.48,0.34,12.78,3.51,18.62c0.55,1.02,0.64,2.3,0.94,3.45c-0.48,0.21-0.95,0.41-1.43,0.62
		c-1.05-1.91-2.3-3.73-3.11-5.73c-2.87-7.11-2.69-14.62-2.56-22.08C306.71,220.63,303.33,216.86,298.74,213.76z M279.78,169.81
		c-2.06-2.24-3.61-3.93-5.25-5.71c-0.81,1.22-1.23,2.42-2.08,3.06c-5.49,4.13-11.2,7.58-18.41,8.14c-11.21,0.87-22.41,2-33.55,3.49
		c-11.19,1.5-22.34,2.43-33.62,1.23c-3.32-0.35-6.72,0.07-10.08,0.06c-7.77-0.01-15.56,0.25-23.31-0.21
		c-7.22-0.42-14.38-2.1-21.6-2.36c-6.87-0.25-12.97-2.24-18.86-5.45c-4.25-2.31-4.71-4.76-1.21-8.27c-1.4,0.38-2.6,0.68-3.78,1.03
		c-2.37,0.71-2.43,2.17-0.99,3.77c3.4,3.77,7.15,7.12,12.09,8.79c5.58,1.88,11.15,3.12,17.2,3.03c6.79-0.11,13.42,2.28,20.38,2.11
		c6.78-0.17,13.58,1.02,20.37,1.07c9.84,0.07,19.71-0.92,29.51-0.4c13.23,0.7,26.03-1.33,38.82-4.07c4.17-0.89,6.01-0.13,6.94,3.56
		C261.35,178.46,270.23,174.29,279.78,169.81z M240.27,154.39c0.06-0.4,0.12-0.8,0.18-1.19c-11.32-2.65-22.62-5.4-33.98-7.91
		c-4.82-1.06-9.74-1.61-14.46,0.8c-0.69,0.35-1.65,0.21-2.49,0.27c-11.79,0.85-23.73-0.46-35.38,2.58c-8.98,2.34-18.61,2-27.04,6.77
		c-4.03,2.28-8.34,4.06-12.52,6.07c0.11,0.33,0.22,0.67,0.33,1c0.95-0.16,1.93-0.22,2.85-0.48c5.35-1.52,10.68-3.11,16.04-4.61
		c5.45-1.53,10.94-2.93,16.38-4.49c5.59-1.61,11.05-3.89,16.74-4.88c5.34-0.92,10.92-0.93,16.36-0.63
		c7.59,0.41,15.15,1.38,22.7,2.27c9.35,1.1,18.69,2.37,28.03,3.57C236.1,153.8,238.19,154.1,240.27,154.39z M251.21,200.42
		c0.03,0.45,0.07,0.89,0.1,1.34c6.36-1.13,12.71-2.31,19.09-3.33c0.96-0.15,2.04,0.45,3.06,0.7c-0.6,0.61-1.2,1.21-1.8,1.82
		c0.01,0.26,0.02,0.53,0.03,0.79c5.07-0.72,10.15-1.4,15.2-2.24c0.42-0.07,0.65-1.2,1.01-1.91c-4.16-1.17-7.75,2.33-11.51,0.41
		c2.76-1.26,5.55-2.15,8.33-3.06c6.86-2.26,13.76-4.39,20.54-6.86c3.3-1.2,4.53-6.69,2.45-9.6c-1.29-1.81-2.69-3.55-4.22-5.56
		c-0.74,0.86-1.59,1.87-2.46,2.87c-2.92,3.3-3.42,8.81-8.91,9.78c-6.57,6.76-15.08,9.78-23.88,11.93
		C262.66,198.86,256.89,199.47,251.21,200.42z M72.04,419.73c2.3,0.27,4.93,1.4,5.95,0.56c3.69-3.03,7.1-6.43,7.45-11.86
		c0.46-7.32,1.27-14.63,2.08-21.93c0.44-4,0.11-4.83-4.11-6.82C80.59,393.12,78.18,406.61,72.04,419.73z M76.25,285.4
		c-2.81-1.59-1.28-7.45-6.97-6.78c0.23,1.02,0.39,1.77,0.69,3.1c-2.36,0-4.39,0.16-6.38-0.04c-3.32-0.33-6.8-1.77-9.86-1.11
		c-2.66,0.57-3.31,0-4.41-1.94c-0.87-1.54-2.31-2.8-4.74-1.9c2.65,2.79,4.85,5.61,7.55,7.82c2.88,2.37,6.49,4.03,10.18,2.33
		c1.79-0.83,3.29-1.58,5.17-1.02c1.09,0.32,2.11,0.86,3.16,1.31c-0.59,0.96-1.19,1.92-1.97,3.18c3.43,6.4,8.78,12.48,8.31,20.99
		c0.31-0.04,0.62-0.09,0.94-0.13c0.75-5.97,1.5-11.95,2.26-17.9c-2.66-0.63-6.36-3.91-6.1-5.59
		C74.18,287.02,75.22,286.46,76.25,285.4z M312.83,194.21c-2.88,1.28-5.67,2.42-8.35,3.79c-0.86,0.44-1.9,1.45-2.01,2.3
		c-0.83,6.24,3.96,13.54,10.36,15.78C312.83,208.73,312.83,201.47,312.83,194.21z M289.41,145.84
		c10.18,6.93,17.75,16.19,24.09,27.56C315.42,163.27,302.77,149.23,289.41,145.84z M109.94,301.38c-3.47,5.72-2.12,9.89,1.02,13.93
		c2.17,2.79,5.05,2.58,6.28-0.79c0.5-1.36,0.7-3.47-0.01-4.51C115.21,307.07,112.64,304.5,109.94,301.38z M78.38,317.15
		c7.23-7.04,10.77-25.71,5.63-28.88C82.14,297.85,80.26,307.47,78.38,317.15z M114.68,196.08c9.6,1.81,18.03,8.18,28.64,7.38
		C134.47,197.53,125.28,194.16,114.68,196.08z M169.31,143.65c9.91,0.13,19.68,0.39,28.9-2.27c-0.69-0.18-1.77-0.65-2.86-0.71
		c-2.7-0.14-5.4-0.12-8.1-0.12c-2.41,0.01-4.83,0.24-7.22,0.08c-2.43-0.16-4.82-0.83-7.24-1.02
		C170.58,139.45,169.17,140.48,169.31,143.65z M43.23,443.21c-0.15-0.15-0.31-0.3-0.46-0.45c-3.14,1.43-6.28,2.84-9.41,4.28
		c-5.13,2.37-6.1,4.76-4.32,9.72C33.66,452.35,38.45,447.78,43.23,443.21z M57.38,264.44c-0.29-0.06-0.59-0.13-0.88-0.19
		c-0.65,6.77-6.29,3.94-9.85,5.02c1.36,3.3,1.38,3.2,3.92,3.75c1.06,0.23,2.07,0.87,3.01,1.46c2.33,1.46,5.74,0.35,5.53-2.02
		C58.88,269.75,57.99,267.11,57.38,264.44z M86.43,358.37c5.52-7.27,7.53-15.09,4.56-23.71c-0.3-0.05-0.6-0.09-0.9-0.14
		C88.87,342.46,87.65,350.41,86.43,358.37z M78.59,213.63c0.15,6.68-4.94,11.98-3.8,18.55c0.31,0.07,0.61,0.14,0.92,0.21
		c1.02-4.49,2.04-8.97,3.12-13.73c1.2,0.74,2.12,1.31,3.02,1.87c4.74-6.96,4.34-12.07-1.65-13.13c0.97,1.63,1.81,2.84,2.42,4.14
		c0.4,0.86,0.48,1.87,0.7,2.81c-1.02-0.08-2.05-0.15-3.06-0.25C79.95,214.09,79.66,213.95,78.59,213.63z M83.12,258.82
		c-2.18,2.09-5.21,3.74-5.13,5.21c0.14,2.62,1.76,5.49,3.56,7.56c1.15,1.33,2.03,2,1.4,3.83c-0.18,0.54,0.61,1.41,0.96,2.13
		c0.31-0.66,1.03-1.47,0.86-1.95c-1.6-4.35-0.35-8.86-0.9-13.25C83.76,261.56,83.54,260.78,83.12,258.82z M109.37,98.43
		c0.44-0.53,0.68-0.69,0.66-0.82c-0.9-5.42-1.87-10.82-2.73-16.24c-0.41-2.56-1.23-5.28-0.74-7.7c0.48-2.4-0.49-3.33-2.48-5.27
		C103.97,79.25,106.75,88.65,109.37,98.43z M273.04,144.92c0.13-0.34,0.25-0.67,0.38-1.01c-6.61-7.16-15.95-6.51-24.6-7.84
		C256.89,139.02,264.97,141.97,273.04,144.92z M94.25,315.62c-0.18,0.08-0.36,0.17-0.54,0.25c0,4.7,0,9.39,0,14.15
		c2.45-1.53,4.33-2.7,6.06-3.78C97.95,322.75,96.1,319.19,94.25,315.62z M162.86,93.16c-0.37,0.18-0.73,0.37-1.1,0.55
		c0.44,1.42,0.67,2.97,1.38,4.25c0.93,1.69,2.3,3.14,3.37,4.77c1.77,2.7,3.44,5.46,5.15,8.19c0.22-0.08,0.43-0.15,0.65-0.23
		c0.22-2.71,0.45-5.42,0.72-8.73c-1.19,1.01-1.9,1.62-2.72,2.32C167.21,100.84,167.18,95.44,162.86,93.16z M95.08,269.19
		c-0.31,0.15-0.63,0.29-0.94,0.44c0.3,3.97,0.6,7.93,0.91,12.05c2.06-0.91,3.7-1.39,5.01-2.33c0.63-0.45,1.17-2.13,0.83-2.63
		C99.11,274.1,97.04,271.68,95.08,269.19z M51.57,449.97c-0.77-6.53,1.18-11.65,4.19-16.53c-0.26-0.09-0.52-0.18-0.78-0.27
		c-3.47,5.82-6.95,11.63-10.42,17.45c0.23,0.25,0.47,0.51,0.7,0.76C47.43,450.89,49.6,450.41,51.57,449.97z M67.13,220.9
		c-0.29,0.1-0.57,0.2-0.86,0.3c0.16,1.41,0.46,2.82,0.44,4.22c-0.04,2.56,0.29,5.33-0.55,7.64c-1.45,3.98-1.32,4.91,3.29,6.29
		c-0.3-1.39-0.46-2.59-0.81-3.72c-0.64-2.06-1.36-4,1.12-5.52c0.51-0.31,0.79-2.2,0.48-2.43c-2.08-1.54-1.81-3.76-2.13-5.85
		C68.06,221.48,67.47,221.21,67.13,220.9z M85.38,329.06c0-5.22,0-9.86,0-14.49c-1.95,1.97-3.26,4.06-4.45,6.22
		c-0.24,0.44-0.24,1.26,0.02,1.67C82.28,324.59,83.74,326.65,85.38,329.06z M41.5,263.48c3.98,3.27,7.64,3.72,10.28,1.88
		c-0.83-1.29-1.66-2.59-2.88-4.5C46.86,261.58,44.54,262.4,41.5,263.48z M63.24,274.78c1.53,0.53,2.57,0.96,3.65,1.23
		c0.6,0.15,1.54,0.27,1.85-0.05c0.38-0.4,0.59-1.54,0.3-1.89c-1.76-2.14-3.68-4.15-5.55-6.2c-0.32,0.19-0.63,0.39-0.95,0.58
		C62.77,270.57,63,272.68,63.24,274.78z M81.92,343.97c3.64-8.33,4.21-11.43,0-13.31C81.92,335.03,81.92,339.2,81.92,343.97z
		 M160.09,200.19c6.39,3.62,13.29,3.52,20.2,3.48c-0.18-0.44-0.4-0.72-0.66-0.76C173.12,201.99,166.61,201.09,160.09,200.19z
		 M139.76,197.97c0.11-0.28,0.22-0.56,0.33-0.84c-4.29-2.55-8.44-5.61-13.79-4.53c-0.09,0.28-0.17,0.56-0.26,0.85
		C130.61,194.96,135.18,196.47,139.76,197.97z M330.39,287.6c1.22,4.08,2.22,7.44,3.22,10.79
		C335.59,293.04,335.25,290.06,330.39,287.6z M207.5,204.4c2.39,4.23,5.53,3.51,8.46,3.25c0.42-0.04,1.06-0.76,1.08-1.2
		c0.02-0.45-0.54-1.3-0.92-1.34C213.45,204.79,210.75,204.64,207.5,204.4z M90.93,152.54c-5.07,1.44-7.94,5.33-7.05,9.23
		C85.84,158.43,89.07,156.5,90.93,152.54z M43.03,272.52c0.25-0.16,0.5-0.32,0.75-0.48c-1.17-2.19-2.34-4.38-3.76-7.04
		c-0.9,1.95-1.62,3.51-2.33,5.05C39.74,271,41.38,271.76,43.03,272.52z M301.41,261.78c2.36,4.23,4.3,7.7,6.24,11.17
		c0.29-0.16,0.57-0.33,0.86-0.49C307.06,268.66,306.55,264.3,301.41,261.78z M23.25,293.74c-1.56,1.53-3.86,2.54-2.52,5.23
		c0.11,0.21,1.92-0.12,2.7-0.6C25.85,296.92,25.28,295.38,23.25,293.74z M75.88,214.76c-4.04,3.06-4.98,5.21-2.82,9.5
		C74.12,220.69,75,217.72,75.88,214.76z M21.19,275.45c2.03,2.44,3.62,4.36,5.76,6.94c0.5-2.24,0.76-3.37,0.98-4.35
		C25.58,277.14,23.63,276.39,21.19,275.45z M51.62,236.77c-2.46-1.51-5.9-0.49-6.45,1.39c-0.13,0.45-0.09,1.24,0.18,1.44
		c0.4,0.3,1.23,0.45,1.62,0.23C48.46,238.98,49.85,237.96,51.62,236.77z M204.76,125.93c0.02,0.22,0.04,0.44,0.05,0.66
		c3.99,0,7.99,0,11.98,0c0-0.22,0-0.44,0.01-0.66C212.79,125.93,208.77,125.93,204.76,125.93z M30.04,245.16
		c3.94,3.76,4.41,3.97,6.16,2.82C33.1,243.99,31.97,243.47,30.04,245.16z M58.49,290.73c-2.41-0.26-4.23-0.47-6.06-0.67
		c1.25,1.5,2.86,2.44,4.54,3.19C57.07,293.3,57.85,291.8,58.49,290.73z M118.68,67.98c0.52-0.14,1.05-0.27,1.57-0.41
		c-0.89-2.91-1.77-5.83-2.66-8.74c-0.41,0.12-0.82,0.23-1.23,0.35C117.14,62.11,117.91,65.05,118.68,67.98z M24.67,252.59
		c-2.92,3.26-2.62,5.11,0.87,5.91C25.26,256.55,24.99,254.78,24.67,252.59z M229.15,128.56c0.03-0.33,0.06-0.67,0.09-1
		c-2.54-0.4-5.08-0.79-7.62-1.19c-0.05,0.48-0.11,0.96-0.16,1.44C224.01,128.06,226.58,128.31,229.15,128.56z M158.88,102.76
		c-1.7,0.39-2.78,0.63-4.25,0.96c0.69,1.45,1.17,2.45,2.06,4.31C157.57,105.91,158.09,104.67,158.88,102.76z M99.63,129.12
		c0.31,0.16,0.62,0.33,0.93,0.49c0.74-0.9,1.61-1.74,2.16-2.74c0.22-0.41-0.26-1.21-0.43-1.84c-0.63,0.32-1.55,0.48-1.82,0.98
		C99.98,126.94,99.89,128.07,99.63,129.12z"/>
	<path d="M231.92,463.49c6.36,4.54,12.65,8.33,21.25,7.82c9.67-0.58,19.39-0.8,29.21,0.61c9.83,1.41,18.58,5.67,27.97,8.07
		c4.46,1.14,8.58-0.03,12.52-1.55c7.13-2.75,14.47-3.08,21.97-3.47c6.13-0.32,12.16-2.18,18.27-3.15c3.27-0.52,6.61-0.63,9.93-0.82
		c1.92-0.11,3.86-0.02,5.96-0.02c0.76,0.49,1.9,1.52,3.24,2.02c7.47,2.75,14.31-0.39,21.38-2.23c4.93-1.28,10.12-1.57,15.2-2.26
		c0.49-0.07,1.08,0.04,1.53,0.26c7.7,3.69,14.23,1.82,20.06-4.01c5-4.99,11.38-5.99,18.07-5.74c6.33,0.23,12.15,2.03,17.28,5.89
		c2.6,1.95,4.33,4.21,3.57,8.19c-0.88-0.54-1.89-0.79-2.09-1.34c-2.65-7.07-8.77-9.06-15.23-9.96c-3.77-0.52-7.78-0.12-11.57,0.54
		c-2.36,0.41-5.17,1.53-6.6,3.29c-3.67,4.51-8.07,7.17-13.78,7.57c6.77,0,13.55,0.04,20.32-0.05c0.99-0.01,1.97-0.97,2.95-0.97
		c1.39,0,3.21,0.08,4.02,0.91c0.58,0.6-0.21,2.51-0.39,3.83c-0.3-0.28-0.59-0.55-0.89-0.83c-1.77-0.14-3.53-0.35-5.3-0.39
		c-2.2-0.04-4.4,0.07-6.6,0.12c-5.2,0.12-10.41,0.25-15.61,0.38c-0.03,0.42-0.05,0.85-0.08,1.27c3.09,0.55,6.18,1.04,9.25,1.67
		c6.46,1.32,12.92,2.69,19.36,4.1c3.39,0.74,6.76,1.55,10.11,2.44c2.96,0.79,4.98-0.47,6.92-2.54c1.33-1.41,2.85-2.86,4.59-3.63
		c5.65-2.5,11.42-4.74,17.2-6.93c0.9-0.34,2.09,0.09,3.15,0.17c-0.11,0.87,0.1,2.03-0.39,2.56c-0.81,0.9-2.16,2.08-3.11,1.95
		c-3.37-0.46-6.92,0.21-9.91,2.6c0.54,0.24,1.01,0.63,1.45,0.61c6.48-0.35,12.99-0.44,19.41-1.26c5.27-0.67,10.48-2.06,15.63-3.48
		c3-0.83,5.76-2.49,8.72-3.53c3.34-1.18,6.76-2.2,10.21-3.01c1-0.23,2.22,0.48,3.33,0.76c-0.33,1-0.63,2.02-1.02,3
		c-0.18,0.45-0.56,0.83-0.9,1.32c-4.56-2.96-8.5-0.21-12.19,1.49c-7.68,3.54-15.87,4.5-23.97,6.24c-7.81,1.67-15.45,1.29-23.05,0.18
		c-3.58-0.52-5.39,0.26-7.35,3.51c3.66,0,6.85-0.11,10.03,0.02c7.77,0.31,15.53,0.95,23.29,1.02c3.67,0.03,7.39-0.8,11.03-1.51
		c4.11-0.8,8.13-2.01,12.24-2.79c0.79-0.15,1.8,0.86,2.7,1.34c-0.85,0.5-1.64,1.25-2.55,1.44c-2.85,0.59-5.74,0.96-8.62,1.41
		c0.1,0.57,0.2,1.15,0.31,1.72c6.52-0.94,13.05-1.88,19.57-2.83c-0.07-0.18-0.15-0.35-0.22-0.53c1.84,0.48,3.68,1.01,5.53,1.45
		c4.08,0.97,8.27,1.59,12.22,2.92c4.4,1.48,7.74-1.22,11.42-2.33c2.87-0.87,5.29-3.22,8.16-4.1c6.2-1.9,12.53-3.38,18.87-4.79
		c1.56-0.35,3.36,0.09,4.97,0.48c0.68,0.17,1.16,1.17,1.73,1.79c-0.73,0.41-1.64,1.33-2.18,1.16c-6.75-2.24-12.48,1.72-18.65,2.92
		c-1.69,0.33-3.11,0.91-2.3,3.15c0.12,0.34-0.08,0.81-0.19,1.21c-0.29,0.99-0.62,1.97-0.93,2.95c1.16,0.19,2.35,0.62,3.49,0.53
		c6.88-0.53,13.74-1.17,20.61-1.78c0.1,0.29,0.19,0.58,0.29,0.86c-0.91,0.4-1.79,1.02-2.74,1.15c-7.08,0.93-14.14,2.05-21.25,2.56
		c-8.35,0.6-16.74,0.77-25.12,0.86c-2.57,0.03-5.13-0.89-7.72-1.21c-0.96-0.12-2.03,0.13-2.96,0.46c-2.1,0.74-4.07,2.11-6.21,2.39
		c-5.51,0.72-11.08,1.43-16.61,1.31c-4.65-0.1-9.29-1.29-13.89-2.21c-0.65-0.13-1.05-1.53-1.22-2.72
		c-6.61-2.08-13.62-2.07-20.69-0.6c-10.77,2.23-21.68,3.16-32.58,1.41c-4.15-0.66-8.11-2.58-12.08-4.14
		c-0.71-0.28-1.03-1.57-1.76-2.76c-4.95,2.19-9.28-0.83-13.98-2.04c-2.65-0.68-5.57-0.33-8.37-0.43c-3.53-0.14-7.16,0.24-10.55-0.5
		c-9.08-1.99-17.85-5.51-27.3-5.65c-6.9-0.1-13.81-0.83-20.65,1.33c-7.4,2.34-14.87,4.61-22.46,6.08
		c-8.19,1.59-16.49,2.57-24.7-0.92c-3.02-1.29-6.64-1.17-10.2-1.73c0.48-0.55,1.03-1.17,1.91-2.18c-6.56-3.09-13.2-0.41-19.57-0.79
		c3.98,0,7.95,0,11.93,0c0.05,0.38,0.09,0.77,0.14,1.15c-2.98,0.54-5.97,1.06-8.94,1.64c-2.13,0.42-4.49,0.48-6.33,1.47
		c-3.96,2.13-7.79,0.19-11.59-0.01c-4.08-0.22-8.01-1.21-12.02,0.69c-1.46,0.69-3.46,0.25-5.07,0.32c-1.99-3.91,0.65-5.15,3.22-6.95
		c-2.06-0.44-4.18-0.69-6.17-1.36c-2.48-0.83-4.77-2.98-7.49-0.61c-0.58-0.69-1.24-1.32-1.7-2.07c-0.36-0.6-0.27-1.68-0.73-1.97
		c-6.35-3.92-12.72-7.8-19.16-11.57c-2.55-1.49-5.27-2.69-7.91-4.03c0.15-0.36,0.31-0.72,0.46-1.07c2.9,1.17,5.79,2.35,8.69,3.5
		c2.88,1.14,5.77,2.26,8.66,3.38L231.92,463.49z M254.11,474.74c4.63,1.99,9.51,5.16,14.35,3.7c3.36-1.02,6.38-0.1,9.52-0.75
		c2.34-0.48,4.92,0.1,7.39,0.26c2.43,0.15,4.85,0.36,7.27,0.55C288.35,474.71,261.17,472.24,254.11,474.74z M427.13,474.3
		c-0.04-0.3-0.08-0.59-0.12-0.89c-1.02-0.06-2.03-0.14-3.05-0.18c-3.78-0.14-7.75,0.42-11.29-0.57c-4.78-1.33-8.87,0.44-13.2,1.34
		c-0.86,0.18-1.62,0.83-2.43,1.26c0.11,0.32,0.21,0.64,0.32,0.95C407.33,476.18,417.36,477.4,427.13,474.3z M557.76,490.65
		c-3.71-0.67-7.42-1.34-11.13-2.01C548.63,492.38,553.76,493.27,557.76,490.65z"/>
	<path d="M83.98,501.08c1.81,0.67,3.61,1.36,5.42,2.01c0.89,0.32,1.83,0.52,2.71,0.86c4.72,1.81,5.5,4.58,2.5,8.71
		c-0.8,1.1-1.84,2.17-2.18,3.42c-0.27,1.02,0.29,2.3,0.58,3.44c0.16,0.64,0.54,1.22,0.82,1.83c-0.69,0.27-1.37,0.55-2.06,0.81
		c-0.08,0.03-0.26-0.12-0.29-0.08c-0.75,0.78-1.97,1.47-2.14,2.37c-0.46,2.39-3.18,4.7-0.63,7.26c0.3,0.31,1.62,0,2.16-0.41
		c1.16-0.89,2.08-2.08,3.16-3.07c1.42-1.3,2.92-2.74,4.11,0.38c0.98-0.57,1.82-0.86,2.39-1.43c3.04-2.98,7.15-3.56,10.87-5.04
		c1.91-0.76,3.55-2.2,5.31-3.33c-0.13-0.31-0.26-0.62-0.39-0.93c-4.13,0-8.26,0-12.39,0c-0.14-0.39-0.28-0.77-0.42-1.16
		c1.06-0.51,2.1-1.43,3.17-1.46c5.55-0.15,11.12-0.11,16.67-0.06c4.39,0.04,8.78,0.38,13.15,0.15c1.29-0.07,2.44-1.77,3.78-2.47
		c0.94-0.49,2.11-0.55,3.17-0.84c1.48-0.4,3.08-0.58,4.39-1.29c5-2.71,9.91-5.6,14.5-8.21c-0.55-1.95-0.9-3.19-1.25-4.44
		c1.38,0.49,2.9,0.74,4.08,1.53c1.26,0.84,2.14,2.22,3.29,3.26c0.49,0.45,1.21,0.64,1.83,0.95c0.17-0.23,0.34-0.46,0.51-0.69
		c-1.48-1.69-3.06-3.31-4.38-5.12c-0.5-0.68-0.38-1.82-0.54-2.74c0.9-0.13,1.94-0.6,2.68-0.31c1.97,0.77,3.8,1.87,5.69,2.84
		c0.2-0.23,0.41-0.47,0.61-0.7c-1.43-1.33-2.92-2.6-4.26-4.01c-0.53-0.57-0.72-1.46-1.06-2.21c0.85,0.07,1.89-0.14,2.51,0.27
		c1.47,0.97,2.69,2.33,4.13,3.34c1.13,0.79,2.46,1.3,3.71,1.94c0.2-0.29,0.4-0.57,0.6-0.86c-0.69-1.11-1.38-2.22-2.18-3.5
		c2.3-3.07,4.58-0.32,7.58,0.38c-0.75-1.14-1.04-1.82-1.54-2.31c-1.04-1.03-2.41-1.82-3.21-2.99c-0.55-0.8-0.37-2.1-0.51-3.17
		c0.92,0.14,2,0.02,2.72,0.47c1.77,1.11,3.3,2.62,5.08,3.71c1.57,0.96,3.32,2.47,5.37,0.25c-2.68-2.28-5.27-4.49-7.86-6.7
		c0.21-0.3,0.43-0.59,0.64-0.89c2.47,1.39,5.03,2.64,7.37,4.21c1.88,1.25,3.33,1.71,5.31,0.05c1.08-0.9,2.84-1,5.05-1.7
		c-4.16-2.81-7.71-5.2-11.26-7.59c0.21-0.31,0.42-0.62,0.63-0.94c3.85,2.15,7.66,4.39,11.58,6.41c1.31,0.68,2.89,0.97,4.38,1.16
		c2.81,0.36,5.64,0.55,8.47,0.74c1.31,0.09,2.63,0.02,3.95,0.02c0-0.32,0.01-0.64,0.01-0.97c-8.36-3.49-16.73-6.98-25.09-10.46
		c0.05-0.33,0.1-0.65,0.14-0.98c0.78,0,1.65-0.23,2.32,0.04c4.88,1.97,9.62,4.31,14.59,6.01c6.44,2.2,13.04,3.91,19.59,5.8
		c0.34,0.1,0.77-0.13,2.16-0.41c-10.84-4.91-21.12-8.99-30.59-14.6c0.21-0.44,0.43-0.88,0.64-1.32c1.61,0.77,3.21,1.57,4.83,2.31
		c6.94,3.15,13.77,6.57,20.85,9.34c5.81,2.28,11.94,3.75,17.9,5.67c0.78,0.25,1.39,1.01,2.08,1.54c-0.84,0.44-1.81,1.4-2.49,1.23
		c-3.94-1.02-7.81-2.3-11.9-3.55c0.13-0.11-0.09-0.01-0.17,0.16c-2.08,4.76-3.43,5.34-10.54,4.48c-3.98-0.48-7.72-0.09-10.61,3.09
		c-0.62,0.68-0.92,1.64-1.53,2.34c-0.42,0.48-1.17,1.09-1.68,1.02c-4.95-0.7-9.2,1.1-13.38,3.38c-0.81,0.44-1.79,0.58-2.69,0.88
		c-5.79,1.92-11.02,4.75-15.58,8.92c-1.96,1.79-4.38,3.14-6.77,4.36c-2.96,1.51-6.18,2.53-9.13,4.07c-0.99,0.52-1.89,1.92-2.1,3.05
		c-0.7,3.79-1.32,4.33-5.08,4.02c-0.72-0.06-1.79,0.51-2.22,1.13c-2.5,3.58-5.65,6.04-9.97,7.17c-2.7,0.71-4.74,2.22-5.21,5.58
		c-0.18,1.25-2.42,2.79-3.96,3.16c-4.59,1.11-9.28,1.93-13.98,2.43c-8.47,0.91-15.6,5.41-23.37,8.19
		c-11.64,4.16-23.19,8.7-35.09,11.98c-5.33,1.47-11.41,0.62-17.11,0.21c-3.2-0.23-5.64,0.4-8.04,2.39c-1.43,1.18-3.2,1.94-4.82,2.89
		c-0.22-0.34-0.44-0.68-0.66-1.01c6.17-5.37,12.34-10.74,18.55-16.15c2.7,2.34,0.64,4.14,0.19,6.37c1.5-1.16,3.63-2,4.38-3.53
		c2.46-4.98,7.74-6.19,11.51-9.36c1.77-1.48,3.53-2.99,5.44-4.27c1-0.67,2.51-0.62,3.46-1.34c2.43-1.86,5.33-3.57,6.82-6.07
		c1.55-2.6,1.67-6.06,2.57-9.76c-4.5,2.04-8.5,3.77-12.43,5.65c-2.89,1.38-6.11,2.39-7.3,5.97c-0.17,0.5-1.45,1.05-2.02,0.89
		c-0.62-0.18-1.26-1.09-1.46-1.8c-0.56-1.96,2.1-5.8,4-6.52c4.98-1.88,9.8-4.23,14.87-5.82c4.16-1.31,6.5-3.51,8.39-7.63
		c2.58-5.64,3.07-5.02-2.52-7.77c-4.98-2.46-9.31-4.01-13.23,1.51c-0.89,1.25-2.21,2.29-3.53,3.1c-0.77,0.48-1.94,0.32-2.93,0.45
		c0.32-0.9,0.38-2.05,1-2.64c1.81-1.74,3.86-3.21,5.75-4.88c0.69-0.61,1.56-1.39,1.67-2.19c0.27-1.97,1.65-2.14,3.08-2.93
		c5.11-2.83,9.3-6.7,11.65-12.28c0.37-0.88,1.27-1.53,1.93-2.28c0.12,1.05,0.69,2.35,0.27,3.12c-1.79,3.35-3.88,6.55-5.93,9.93
		c6.62-1.89,12.1-4.97,14.56-12.02c2.13-6.1,0.48-10.48-5.37-13.2c-1.24-0.58-2.6-0.9-3.79-1.54c-0.5-0.27-0.72-1.05-1.07-1.6
		c0.59-0.29,1.2-0.85,1.78-0.82c7.12,0.31,13.3,8.13,11.7,15.06c-1.88,8.14-6.96,13.39-15.09,15.61c-2.08,0.57-4.14,1.21-6.21,1.82
		C84.07,500.21,84.02,500.64,83.98,501.08z M156.13,509.04c-3.49,1-6.71,2.4-8.98,6.29c2.55,0.3,4.73,0.56,7.57,0.9
		c2.78-1.83,2.86-2.14,1.35-7.25c0.58,0.19,1.42,0.2,1.7,0.6c2.04,2.95,3.53,1.09,5.17-0.34
		C160.52,505.38,159.08,505.37,156.13,509.04z M139.73,518.57c-0.18-0.26-0.36-0.51-0.54-0.77c-1.79,0.99-3.7,1.83-5.35,3.02
		c-4.99,3.6-10.88,4.48-16.58,4.21c-4.08-0.19-7.44,0.83-10.8,2.44c-1.09,0.52-1.57,2.31-2.36,3.49c-1.2,1.8-2.34,3.65-3.67,5.36
		c-0.94,1.21-2.14,2.22-3.23,3.32c0.21,0.27,0.42,0.53,0.63,0.8c5.17-2.4,10.33-4.81,15.49-7.22c0.27-0.13,0.5-0.39,0.71-0.62
		c3.79-4.4,9.22-5.43,14.39-7.04C132.79,524.18,136.73,522.09,139.73,518.57z M122.31,538.62c0.11,0.3,0.21,0.6,0.32,0.9
		c4.4-0.95,8.81-1.89,13.2-2.86c0.27-0.06,0.54-0.36,0.69-0.61c1.27-2.06,2.51-4.15,4.15-6.86c-1.28-0.07-2.41-0.35-3.42-0.13
		c-0.97,0.22-1.86,0.9-2.72,1.47C130.45,533.21,126.38,535.92,122.31,538.62z M80.79,542.93c7.62,0.77,19.26-6.19,19.78-11.68
		C94.07,535.09,87.64,538.89,80.79,542.93z M116.69,522.73c5.31,0.8,11.95-1.51,12.81-4.31
		C124.74,518.13,119.82,517.3,116.69,522.73z M166.93,506.14c0.26-0.3,0.51-0.6,0.77-0.9c-1.11-0.85-2.18-1.78-3.38-2.47
		c-0.2-0.12-1.01,0.84-1.79,1.51C164.35,505.05,165.64,505.6,166.93,506.14z M138.78,521.94c4.15,0.28,4.71-0.14,4.99-3.59
		C142.1,519.55,140.77,520.51,138.78,521.94z"/>
	<path d="M304.52,278.78c0.82,1.27,1.92,2.44,2.41,3.82c1.8,5.11,1.16,10.35,0.61,15.6c-0.49,4.68,0.25,9.06,3.06,13.07
		c1.78,2.54,3.04,5.45,4.53,8.2c0.2,0.37,0.27,0.91,0.57,1.09c5.08,3.05,5.55,8.42,6.58,13.4c0.77,3.72,1.72,7.06,3.59,10.61
		c2.2,4.18,6.19,5.01,8.8,7.93c0.32,0.35,1.17,0.23,1.99,0.35c0.31-2.18,0.62-4.22,0.88-6.28c0.38-3.04,0.02-5.61-3.46-6.86
		c-0.69-0.25-0.92-1.9-1.28-2.93c-0.46-1.29-0.83-2.61-1.31-4.15c2.54-0.38,3.87,0.42,4.48,2.62c0.27,0.98,0.62,2.2,1.36,2.76
		c4.79,3.66,3.9,8.36,2.48,13.08c-0.61,2.02-0.53,3.19,1.81,3.61c3.47,0.62,6.92,1.31,10.34,2.15c0.64,0.16,1.08,1.16,1.61,1.78
		c-0.73,0.39-1.54,1.24-2.16,1.11c-3.49-0.72-6.93-1.69-10.4-2.53c-0.8-0.19-1.68-0.4-2.45-0.25c-0.42,0.09-1.02,1-0.94,1.42
		c0.13,0.71,0.59,1.58,1.18,1.95c4.5,2.82,9.08,5.51,13.59,8.32c0.65,0.41,1.06,1.21,1.59,1.83c-0.21,0.32-0.42,0.64-0.62,0.96
		c-1.12-0.45-2.32-0.78-3.36-1.36c-6.2-3.45-12.37-6.94-18.54-10.45c-1.01-0.57-1.96-1.26-2.93-1.9c0.15-0.36,0.3-0.73,0.44-1.09
		c1.83,0.55,3.66,1.11,5.8,1.75c0.13-0.9,0.61-2.15,0.31-2.37c-2.71-2-5.56-3.82-8.91-6.06c0.58,2.64,1.01,4.58,1.44,6.53
		c-0.33,0.2-0.66,0.41-0.99,0.61c-0.77-0.89-1.95-1.65-2.24-2.68c-1.56-5.44-3.64-10.87-4.16-16.43c-0.8-8.56-4.03-15.65-9.45-22.15
		c-4.49-5.39-7.18-11.62-5.99-18.93c0.91-5.58,1.17-11.08-1.34-16.38c-0.15-0.32-0.02-0.78-0.02-1.18
		C303.8,279.18,304.16,278.98,304.52,278.78z"/>
	<path d="M101.31,378.48c0.78-0.71,1.61-2.04,2.32-1.98c1.12,0.1,2.76,0.91,3.12,1.83c0.97,2.48,1.38,5.18,2.01,7.79
		c0.24-0.03,0.55,0.01,0.61-0.09c3.98-7.45,9.08-14.56,7.47-23.77c-0.09-0.52-0.27-1.09-0.14-1.56c2.19-7.68-3.35-11.95-7.34-16.97
		c-2.41-3.03-4.48-6.34-6.65-9.56c-0.24-0.35-0.12-0.94,0.47-2.02c0.92,0.76,1.99,1.4,2.72,2.32c3.42,4.24,6.77,8.54,10.07,12.87
		c0.63,0.82,0.93,1.9,1.48,3.06c2.77-3.07,2.24-5.14,1.73-7.33c-0.18-0.77,0.43-1.72,0.69-2.59c0.66,0.67,1.81,1.31,1.87,2.03
		c0.17,2.09,0.35,4.37-0.31,6.28c-0.8,2.32-0.24,2.97,1.93,3.44c1.31,0.28,2.48,1.19,3.72,1.82c-1.4,0.36-2.83,1.11-4.2,1.02
		c-3.86-0.25-3.75-0.39-3.57,3.48c0.26,5.4,1.59,10.89-1,16.1c-1.91,3.83-3.82,7.66-5.9,11.39c-2.79,4.98-5.72,9.89-8.7,14.76
		c-0.5,0.82-1.5,1.42-2.38,1.92c-4.35,2.48-5.02,4-4.6,8.86c0.25,2.92-0.42,5.38-2.92,7.77c-2.6,2.49-3.92,6.29-5.95,9.42
		c-0.93,1.45-2.04,2.9-3.4,3.91c-0.54,0.4-1.97-0.41-3-0.67c0.3-0.88,0.42-1.87,0.92-2.61c1.65-2.51,3.36-5,5.19-7.39
		c1.55-2.02,3.44-3.78,4.91-5.84c0.76-1.06,1.54-2.71,1.25-3.82c-1.33-5.2,0.72-8.33,4.99-11.25c7.37-5.04,7.88-11.55,6.51-19.28
		c-0.2-1.12-1.76-2-2.69-2.99C102.15,378.72,101.73,378.6,101.31,378.48z"/>
	<path d="M173.04,296.68c-1.45,1.74-3.73,3.8-5.11,6.35c-0.9,1.65-0.86,4.06-0.59,6.03c0.52,3.75,1.5,7.45,2.33,11.15
		c0.88,3.94,0.98,8.34,2.9,11.7c2.9,5.1,2.14,9.43,0.01,14.28c-1.24,2.81-1.71,5.95-2.61,8.92c-0.19,0.61-0.63,1.47-1.11,1.6
		c-0.71,0.19-1.88,0.09-2.28-0.38c-0.51-0.59-0.81-1.81-0.55-2.52c1.48-4.09,3.44-8.04,4.65-12.2c0.63-2.15,0.89-5.14-0.14-6.9
		c-3.13-5.34-3.45-11.16-4.25-16.98c-0.54-3.96-0.46-8.19-3.78-11.29c-0.35-0.33-0.34-1.49-0.04-1.99c1.52-2.49,3.42-4.76,4.74-7.34
		c1.56-3.05,2.75-6.31,3.93-9.54c0.53-1.46,0.32-3.24,1-4.6c3.51-7.01,2.78-14.53,2.92-21.94c0.22-11.64,0.34-23.28,0.5-34.92
		c0.01-0.42-0.12-0.84-0.08-1.25c0.08-0.85,0.14-1.73,0.44-2.51c0.06-0.16,1.42-0.18,1.61,0.11c0.51,0.76,0.99,1.74,0.98,2.62
		c-0.09,5.24-1.14,10.61-0.35,15.7c1.51,9.72-1.46,19.25-0.39,28.82c0.63,5.63-1.85,10.36-2.95,15.49
		c-0.46,2.12-1.33,4.16-1.71,6.29C172.82,292.96,173.04,294.63,173.04,296.68z"/>
	<path d="M205.12,272.55c0.3,3.37-1.16,5.72-4.35,7.1c-4.62,1.99-6.11,5.01-4.56,9.57c1.26,3.69,0.94,6.77-0.88,10.45
		c-3.64,7.33-4.14,15.52-4.75,23.62c-0.14,1.91-1.23,3.85-2.28,5.53c-0.31,0.5-1.99,0.13-3.05,0.16c0.06-1-0.04-2.05,0.22-3
		c0.46-1.65,1.39-3.2,1.7-4.86c1.09-5.98,1.91-12.01,3.05-17.98c0.36-1.91,1.04-3.98,2.22-5.47c1.85-2.33,1.81-4.56,0.88-7.06
		c-2.28-6.1-0.94-10.29,4.95-13.41c3.37-1.78,4.36-3.93,3.72-7.6c-0.68-3.92-0.53-7.97-1.11-11.91c-0.5-3.4-1.29-6.8-2.34-10.07
		c-1.82-5.68-3.91-11.29-5.96-16.89c-0.64-1.75-1.55-3.4-2.27-5.12c-0.25-0.6-0.31-1.28-0.45-1.92c0.77,0.01,1.8-0.29,2.27,0.1
		c0.84,0.7,1.6,1.71,1.95,2.75c3.08,8.88,6.06,17.8,9.08,26.71c0.2,0.6,0.54,1.18,0.59,1.79
		C204.23,260.86,204.67,266.71,205.12,272.55z"/>
	<path d="M473.15,437.54c0.89,0.84,1.39,1.7,2.08,1.91c6.2,1.93,12.41,3.83,18.66,5.56c3.83,1.06,7.74,1.89,11.64,2.71
		c11.28,2.37,22.57,4.67,33.85,7.01c2.03,0.42,4.05,0.9,6.06,1.44c0.56,0.15,1.47,0.62,1.47,0.95c-0.01,2.52,2.09,2.07,3.48,2.75
		c7.23,3.51,14.46,7.02,21.58,10.74c2.22,1.16,4.32,2.8,4.89,6.13c-1.04-0.3-1.81-0.28-2.09-0.65c-3.31-4.24-8.2-6.03-12.76-8.29
		c-3.39-1.68-6.84-3.22-10.33-4.7c-3.89-1.65-7.74-1.45-11.54,0.5c-2.14,1.1-4.36,2.05-6.62,2.85c-0.87,0.31-1.95,0.05-3.83,0.05
		c4.01-4.69,9.44-4.88,13.79-6.99c-0.02-0.31-0.04-0.62-0.07-0.93c-4.56-1.3-9.08-2.82-13.7-3.86c-11.37-2.57-22.89-4.58-34.17-7.48
		c-9.23-2.38-18.22-5.7-27.29-8.68c-1.04-0.34-1.94-1.14-2.79-2.28c0.61,0.03,1.22,0.08,1.83,0.08c1.2,0,2.72,0.42,3.54-0.15
		c1.61-1.12,1.87-2.88,0.69-4.72c-0.54-0.84-0.79-1.87-1.27-3.04c3.11-0.88,4.31,0.79,5.25,2.9c0.55,1.24,1.11,2.48,1.55,3.76
		c0.35,1.04,0.52,2.15,0.78,3.23C476.66,438.16,475.5,437.95,473.15,437.54z"/>
	<path d="M156.17,216.21c0.83,1.13,2.04,2.14,2.42,3.4c1.59,5.3,3.06,10.65,4.35,16.03c1.46,6.1-1.44,10.83-5.89,14.33
		c-4.68,3.68-7.1,8.67-9.69,13.68c-0.28,0.55-0.58,1.18-0.58,1.78c0.01,5.44,0.02,10.89,0.17,16.33c0.2,6.79,1.43,13.68-2.9,19.82
		c-0.42,0.59-0.05,1.71-0.4,2.38c-0.46,0.87-1.46,2.29-1.93,2.18c-1.18-0.27-2.3-1.17-3.2-2.06c-0.18-0.18,0.61-1.6,1.19-2.22
		c2.92-3.12,4.4-6.9,4.38-11.04c-0.03-7.63-0.26-15.28-0.76-22.9c-0.37-5.74,2.95-9.75,5.96-13.83c2.72-3.68,6.22-6.78,9.07-10.38
		c1.13-1.42,1.83-3.45,2.04-5.29c0.76-6.74-2.09-12.74-4.31-18.85c-0.32-0.87-0.59-1.74-0.88-2.62
		C155.52,216.72,155.85,216.47,156.17,216.21z"/>
	<path d="M60.06,482.59c0.68,1.17,1.36,2.34,2.31,3.99c1.89-5.17,5.7-7.29,10.4-8.57c6.52-1.78,7.99-5.81,5.72-12.37
		c-2.04-5.91-3.37-12.07-5.01-18.13c-0.11-0.4-0.34-0.97-0.17-1.21c0.65-0.89,1.45-1.68,2.19-2.51c0.55,0.85,1.66,1.79,1.56,2.55
		c-0.78,5.69,1.14,10.71,3.25,15.8c1.56,3.77,2.77,7.65,1.46,11.93c-1.09,3.55-3.55,5.61-6.76,6.33c-5.34,1.2-8.62,4.07-10.55,9.2
		c-1.06,2.82-2.89,5.58-5.03,7.71c-2.77,2.78-6.14,4.98-9.37,7.27c-0.76,0.54-2,0.7-2.96,0.56c-0.59-0.08-1.3-0.99-1.47-1.65
		c-0.1-0.39,0.69-1.11,1.21-1.53c4.43-3.57,9-6.99,13.25-10.76c0.83-0.73,0.72-2.83,0.58-4.25c-0.14-1.38-0.87-2.7-1.34-4.05
		C59.58,482.8,59.82,482.7,60.06,482.59z"/>
	<path d="M285.26,261.79c0.82,0.99,1.63,1.98,2.45,2.96c1.09,1.29,2.38,2.47,3.24,3.9c1.47,2.47,3.18,4.97,3.84,7.69
		c0.6,2.48-0.14,5.27-0.14,7.92c0,2.45,0.04,4.92,0.33,7.34c0.33,2.7,1.02,5.35,1.44,8.04c0.72,4.55,4.34,7.18,6.69,10.67
		c1.86,2.76,2.99,6.15,3.83,9.41c0.84,3.24,0.67,6.74,1.42,10.02c0.4,1.73,1.95,3.17,2.72,4.85c0.4,0.87,0.26,2,0.36,3.01
		c-1.01-0.32-2.48-0.34-2.94-1.03c-1.3-1.97-2.6-4.11-3.14-6.36c-0.97-4.07-1.08-8.36-2.15-12.4c-0.69-2.61-1.92-5.51-3.83-7.28
		c-4.32-4.01-6.1-8.88-6.8-14.45c-0.25-1.97-1.11-3.86-1.28-5.83c-0.19-2.22-0.47-4.68,0.27-6.68c1.89-5.09,0.43-9.26-2.73-13.11
		c-1.96-2.4-4.44-4.45-4.59-7.83C284.6,262.35,284.93,262.07,285.26,261.79z"/>
	<path d="M350.06,464.94c-1.99,1.18-4.45,2.76-7.01,4.14c-8.95,4.81-18.41,4.44-27.88,2.2c-6.59-1.56-12.72-5.07-19.82-4.53
		c-0.56,0.04-1.18-0.84-1.78-1.29c0.68-0.47,1.46-1.45,2.01-1.33c6.12,1.33,12.22,2.72,18.28,4.32c10.55,2.78,20.84,3.49,30.68-2.52
		c3.47-2.12,7.14-3.94,10.79-5.74c0.71-0.35,1.78,0.02,2.68,0.06c-0.17,0.84-0.27,1.69-0.51,2.5c-0.24,0.82-0.63,1.59-0.95,2.39
		c0.87,0.09,1.81,0.44,2.59,0.22c6.78-1.92,13.54-1.07,20.3,0.04c0.58,0.09,1.08,0.68,1.61,1.04c-0.53,0.38-1.05,1.07-1.58,1.08
		c-8.36,0.06-16.73,0.13-25.09-0.09C353.06,467.41,351.76,465.97,350.06,464.94z"/>
	<path d="M124.17,285.18c3.21-0.91,2.84-3.07,2.6-5.49c-0.68-6.91-1.35-13.79,3.1-20.05c1.16-1.63,1.16-4.19,1.35-6.36
		c0.35-3.96,0.28-7.95,0.68-11.9c0.61-6.03,1.42-12.05,2.3-18.05c0.13-0.86,1.13-1.59,1.72-2.38c0.43,0.91,1.19,1.8,1.23,2.72
		c0.29,6.21-1.03,12.2-2.35,18.24c-0.79,3.64-0.34,7.53-0.85,11.25c-0.48,3.45-1.1,6.99-2.38,10.2c-1.75,4.37-2.77,8.66-2.04,13.38
		c0.39,2.57,0.53,5.24,0.29,7.82c-0.09,0.98-1.42,2.29-2.44,2.6c-0.87,0.26-2.1-0.72-3.17-1.14
		C124.2,285.74,124.19,285.46,124.17,285.18z"/>
	<path d="M194.13,388.6c0.24,0.82,0.96,2.06,0.66,2.4c-3.15,3.6-1.91,7.8-1.69,11.78c0.68,12.39,1.77,24.75,2.17,37.15
		c0.23,7.11-1.95,13.9-4.93,20.38c-1.04,2.26-2.66,3.79-5.22,4.01c-0.52,0.05-1.08-0.33-1.62-0.52c0.22-0.52,0.31-1.36,0.68-1.51
		c4.13-1.63,4.9-5.57,6.04-9.05c2.78-8.44,2.85-17.14,2.16-25.92c-0.81-10.38-1.47-20.77-2-31.16c-0.1-1.91,0.67-3.89,1.22-5.78
		c0.2-0.68,0.95-1.19,1.45-1.78C193.42,388.6,193.78,388.6,194.13,388.6z"/>
	<path d="M139.78,387.32c1.12,1.43,2.15,2.17,2.3,3.05c0.47,2.86,1.01,5.81,0.8,8.67c-0.75,9.73-1.32,19.52-2.92,29.12
		c-1.07,6.42-3.76,12.57-5.68,18.86c-0.23,0.75-0.33,1.62-0.19,2.38c0.48,2.65-0.95,5.64-3.44,6.59c-0.63,0.24-1.48-0.09-2.22-0.16
		c0.19-0.75,0.12-1.83,0.6-2.2c2.56-1.98,3.53-4.08,1.28-6.93c-0.27-0.34-0.15-1.53,0.11-1.65c4.62-2.17,4.87-6.8,5.48-10.75
		c1.61-10.37,2.82-20.81,3.82-31.25C140.17,398.22,139.78,393.32,139.78,387.32z"/>
	<path d="M304.59,368.96c-1.1-0.47-2.35-0.72-3.26-1.43c-3.29-2.58-6.44-5.34-9.69-7.99c-2.33-1.91-4.65-3.84-7.11-5.58
		c-3.99-2.82-6.21-6.78-6.31-11.45c-0.2-9.56-2.74-18.65-4.72-27.88c-0.2-0.94,0.29-2.03,0.46-3.04c0.65,0.74,1.67,1.39,1.91,2.25
		c2.41,8.68,4.4,17.41,5.05,26.47c0.33,4.56,1.46,9.13,6.37,11.77c2.55,1.37,4.31,4.15,6.6,6.09c3,2.56,6.19,4.9,9.26,7.38
		c0.84,0.68,1.55,1.53,2.31,2.31C305.17,368.22,304.88,368.59,304.59,368.96z"/>
	<path d="M206.82,336.99c0.28,0.87,0.99,1.87,0.77,2.59c-1.95,6.51-0.2,12.65,1.87,18.68c1.35,3.92,3.31,7.63,4.91,11.47
		c0.39,0.94,0.47,2.03,0.64,3.05c0.82,4.83,1.26,9.76,2.51,14.48c1.93,7.29-1.26,13.49-3.51,19.92c-0.19,0.55-1.68,0.64-2.57,0.95
		c0.05-0.83-0.17-1.8,0.18-2.46c3.61-6.85,5.47-13.8,2.29-21.44c-0.78-1.87-0.91-4.11-0.96-6.18c-0.14-5.52-2.32-10.26-4.62-15.16
		c-1.91-4.08-2.77-8.74-3.55-13.23c-0.56-3.27-0.32-6.7-0.24-10.06c0.02-0.86,0.75-1.7,1.16-2.55
		C206.07,337.01,206.44,337,206.82,336.99z"/>
	<path d="M151.98,288.5c0.98,0.9,2.52,1.65,2.82,2.74c0.87,3.11,1.53,6.34,1.74,9.56c0.81,12.25,1.71,24.51,1.93,36.78
		c0.09,4.72-1.29,9.54-2.47,14.19c-0.75,2.96-3.79,3.58-6.16,1.55c7.28-5.6,6.27-13.59,5.87-21.26c-0.52-9.97-1.3-19.92-2.22-29.86
		c-0.31-3.38-1.41-6.68-2.13-10.02c-0.19-0.9-0.3-1.82-0.45-2.73C151.26,289.14,151.62,288.82,151.98,288.5z"/>
	<path d="M248.99,428.72c21.97,11.92,46.39,17.6,69.14,27.53c-0.08,0.34-0.15,0.67-0.23,1.01c-1.35-0.2-2.78-0.2-4.04-0.65
		c-9.71-3.42-19.37-6.97-29.07-10.4c-6.52-2.31-13.23-4.16-19.59-6.84c-5.59-2.36-10.81-5.58-16.17-8.45
		c-0.29-0.16-0.4-0.65-0.6-0.99C248.61,429.52,248.8,429.12,248.99,428.72z"/>
	<path d="M232.03,463.6c-2.47-2.37-4.95-4.72-7.39-7.11c-5.29-5.16-6.83-11.92-7.74-18.84c-0.53-4.05-0.39-8.19-0.82-12.26
		c-0.31-2.9-1.13-5.74-1.58-8.63c-0.11-0.69,0.32-1.46,0.51-2.2c0.73,0.4,1.93,0.64,2.12,1.21c0.65,1.97,1.1,4.03,1.35,6.09
		c0.89,7.6,0.84,15.43,2.7,22.77c2.68,10.58,10.21,17.6,21.22,18.99c0.7,0.09,1.3,0.94,1.94,1.44c-0.72,0.41-1.49,1.25-2.14,1.16
		c-2.05-0.28-4.07-0.86-6.08-1.41c-1.41-0.38-2.8-0.89-4.19-1.34C231.92,463.49,232.03,463.6,232.03,463.6z"/>
	<path d="M302.67,345.22c3.92,0.08,5.03,3.06,6.64,5.35c4.16,5.91,8.19,11.92,12.17,17.96c1.38,2.09,2.6,4.32,3.56,6.63
		c0.31,0.74-0.49,1.94-0.8,2.99c3.17,2.34,6.93,4.35,8.49,8.62c-2.04,0.49-19.54-11.74-20.26-14.21c3.69-0.45,5.86,2.35,9.36,4.34
		c-0.43-1.78-0.42-3.03-0.99-3.92c-5.32-8.29-10.74-16.51-16.14-24.75C304.04,347.21,303.35,346.22,302.67,345.22z"/>
	<path d="M129.06,318.63c0.86-2.74,1.97-5.76,2.72-8.86c0.58-2.42,0.84-4.95,1-7.44c0.31-5.02,0.19-10.08,0.79-15.06
		c0.29-2.36,1.79-4.6,2.87-6.83c0.16-0.32,1.32-0.58,1.5-0.39c0.5,0.53,1.14,1.43,0.99,1.99c-0.49,1.79-1.51,3.43-1.96,5.22
		c-0.6,2.39-1.09,4.85-1.21,7.3c-0.15,3.03,0.43,6.12,0.14,9.12c-0.3,3.05-0.95,6.16-2.05,9.01c-1.83,4.74-1.33,9.25,0.25,13.83
		c0.2,0.59,0.75,1.22,0.64,1.73c-0.23,1.11-0.77,2.15-1.19,3.22c-0.76-0.82-1.93-1.53-2.19-2.48
		C130.45,325.78,129.88,322.47,129.06,318.63z"/>
	<path d="M257.48,423.48c-2.13-3.01-4.23-6.04-6.42-9.01c-1.24-1.68-2.4-3.52-3.98-4.83c-2.93-2.41-4.02-5.5-4.36-9.08
		c-0.66-7-1.43-13.99-2.06-20.99c-0.32-3.54-0.49-7.1-0.53-10.65c-0.01-0.67,0.95-1.35,1.47-2.02c0.67,0.65,1.71,1.21,1.91,1.98
		c0.27,1.06-0.22,2.28-0.17,3.43c0.21,4.78,0.5,9.55,0.76,14.33c0.18,3.35,0.45,6.71,0.51,10.06c0.09,4.58,1.45,8.13,5.14,11.46
		c3.64,3.28,6,8,8.8,12.17c0.42,0.62,0.21,1.68,0.29,2.53C258.39,423.07,257.94,423.27,257.48,423.48z"/>
	<path d="M162.96,467c-0.96-0.92-1.25-1.07-1.24-1.2c0.38-7.56-1.09-15.37,2.9-22.43c0.91-1.61,2.14-3.14,3.52-4.38
		c2.28-2.04,3.38-4.37,3.33-7.45c-0.11-6.6-0.88-12.99-4.66-18.66c-0.42-0.63-0.51-1.49-0.75-2.24c0.3-0.22,0.61-0.44,0.91-0.66
		c1.35,1.63,3.29,3.06,3.95,4.93c2.14,6.04,3.56,12.24,2.95,18.82c-0.31,3.35-1.79,5.87-4.09,7.85c-3.69,3.18-4.68,7.32-4.96,11.82
		c-0.2,3.14-0.16,6.3-0.45,9.43C164.24,464.1,163.55,465.31,162.96,467z"/>
	<path d="M112.81,420.85c-1.84,8.18-3.96,15.28-7.89,21.91c-3.69,6.23-8.79,11.89-9.33,19.68c-0.05,0.67-1.25,1.26-1.92,1.89
		c-0.42-0.94-1.45-2.14-1.18-2.77c2.33-5.36,4.42-10.91,7.51-15.82c4.78-7.62,8.66-15.3,8.24-24.63c-0.05-1.16,1.54-2.4,2.38-3.6
		C111.42,418.74,112.23,419.96,112.81,420.85z"/>
	<path d="M273.73,307.32c0.2-7.24-5.1-11.62-7.76-17.27c-1.05-2.22-1.24-4.98-1.3-7.51c-0.09-3.59,0.64-7.09-0.97-10.7
		c-1.04-2.32-0.81-5.24-0.97-7.9c-0.02-0.42,0.92-0.91,1.42-1.36c0.41,0.51,1.05,0.98,1.18,1.56c0.23,1.01,0.22,2.09,0.17,3.14
		c-0.1,1.91,0.76,3.37,1.47,5.08c1.18,2.83,1.23,6.31,1.07,9.48c-0.17,3.38,0.09,6.31,2.22,9.17c2.22,2.98,3.99,6.32,5.8,9.59
		C277.78,303.66,277.06,306.04,273.73,307.32z"/>
	<path d="M43.46,468.78c0.85,1.1,2.5,2.33,2.35,3.28c-0.16,1.07-1.84,2.51-3.04,2.7c-3.79,0.59-7.14,1.63-10.48,3.81
		c-2.42,1.58-6.03,1.31-9.09,1.98c-1.48,0.33-2.89,1.01-4.37,1.35c-0.94,0.21-1.96,0.09-2.94,0.11c0.32-1.19,0.35-3.18,1.02-3.42
		c2.55-0.93,5.13-1.56,6.53-4.25c0.15-0.29,0.72-0.47,1.11-0.51c3.91-0.35,7.83-0.56,11.72-1.01c2.62-0.3,6.11,0.75,6.32-4.09
		C42.9,468.76,43.18,468.77,43.46,468.78z"/>
	<path d="M439.7,449.95c0.88-0.11,1.76-0.28,2.64-0.32c6.07-0.21,12.15-0.49,18.22-0.55c7.09-0.07,13.51,2.61,19.84,5.41
		c2.37,1.05,4.68,2.31,6.86,3.71c0.88,0.56,1.34,1.77,1.99,2.69c-0.22,0.27-0.45,0.54-0.67,0.81c-0.97-0.39-2.06-0.59-2.88-1.18
		c-7.88-5.69-16.65-8.79-26.36-8.89c-5.45-0.06-10.91,0.32-16.36,0.36c-1.16,0.01-2.32-0.58-3.48-0.9
		C439.57,450.72,439.64,450.34,439.7,449.95z"/>
	<path d="M173.31,395.83c2.13-7.44,4.31-13.79,5.72-20.31c1.81-8.37,3.78-16.8,2.58-25.52c-0.07-0.51,0.83-1.16,1.27-1.75
		c0.58,0.67,1.69,1.37,1.66,2.02c-0.19,5.22-0.2,10.49-1.04,15.62c-1.02,6.17-2.63,12.27-4.31,18.3c-0.95,3.4-2.54,6.63-3.92,9.9
		C175.06,394.56,174.43,394.85,173.31,395.83z"/>
	<path d="M154.9,478.03c-0.86,1.44-2.02,2.77-2.53,4.32c-1.65,4.96-3.32,9.93-4.52,15.01c-1.58,6.69-4.67,10.07-11.16,10.86
		c-1.09,0.13-2.3-0.75-3.46-1.16c0.87-0.73,1.71-2.03,2.62-2.09c6.42-0.43,8.35-4.49,9.56-10.1c1.09-5.05,3.27-9.9,5.27-14.71
		c0.52-1.24,2.17-2.01,3.3-2.99C154.29,477.46,154.59,477.74,154.9,478.03z"/>
	<path d="M106.58,487.81c0.95,1.39,1.9,2.78,3.17,4.64c2.39-5.37,4.75-10.13,6.56-15.1c0.46-1.27-0.79-3.17-1.48-5.55
		c0.29-0.12,1.87-1.25,2.39-0.88c1.07,0.76,2.41,2.52,2.17,3.52c-0.97,4.03-2.49,7.93-3.81,11.87c-1.22,3.63-2.38,7.29-3.71,10.88
		c-0.39,1.05-1.27,1.92-1.92,2.87c-0.68-0.9-1.57-1.71-1.98-2.71c-0.77-1.89-1.32-3.88-1.86-5.85c-0.3-1.1-0.37-2.25-0.54-3.38
		C105.91,488.01,106.25,487.91,106.58,487.81z"/>
	<path d="M339.32,451.17c-11.08-12.4-22.76-24.14-36.75-33.99C308.6,416.5,339.55,444.98,339.32,451.17z"/>
	<path d="M259.51,244.77c1.65-3.35-0.84-5.53-2.58-7.7c-3.8-4.75-6.04-10.01-6.39-16.09c-0.08-1.36-0.55-2.71-0.47-4.05
		c0.09-1.39,0.62-3.95,0.96-3.95c2.38-0.01,1.96,2.09,2.2,3.67c0.52,3.52,0.49,7.26,1.76,10.49c1.6,4.1,4.28,7.78,6.46,11.66
		c0.66,1.17,1.48,2.36,1.73,3.64C263.64,244.88,262.13,245.84,259.51,244.77z"/>
	<path d="M249.47,310.95c1.97-0.7,2.82-0.02,3.91,1.57c2.4,3.5,5.16,6.78,8,9.94c1.58,1.76,5.17,1.19,6.7-0.75
		c0.68-0.86,1.32-1.76,2.03-2.7c2.2,2.6,0.06,6.83-3.36,7.51c-4.09,0.81-7.24-0.64-9.52-4.21c-0.6-0.94-1.54-1.69-2.4-2.43
		C252.06,317.49,250.13,314.63,249.47,310.95z"/>
	<path d="M600.56,437.35c1.93,2.27,4,4.44,5.76,6.83c1.53,2.1,3.37,1.6,5.35,1.25c3.13-0.54,3.88,0.21,3.22,3.18
		c0.3,0,0.58-0.02,0.85,0c0.92,0.06,1.93-0.05,2.73,0.3c0.38,0.17,0.71,1.57,0.46,1.84c-0.67,0.7-1.67,1.5-2.53,1.5
		c-3.89-0.01-7.77-0.91-10.07-4.16c-2.33-3.3-3.86-7.17-5.73-10.81C600.6,437.28,600.56,437.35,600.56,437.35z"/>
	<path d="M244.17,270.73c1.38-6.71-3.76-10.22-6.99-14.64c-0.67-0.92-1.75-1.56-2.33-2.52c-0.39-0.65-0.24-1.62-0.33-2.45
		c0.86,0.09,1.97-0.14,2.53,0.31c5.47,4.42,9.11,10.04,10.35,17.02C247.83,270.93,246.51,271.64,244.17,270.73z"/>
	<path d="M103.62,200.73c2.45,1.51,4.06,5.75,3.55,7.75c-0.81,3.17-1.56,6.36-2.38,9.53c-0.24,0.92-0.61,1.81-1.46,2.62
		C101.92,214.07,103.15,207.68,103.62,200.73z"/>
	<path d="M130.57,475.75c0.47,1.09,1.16,2.13,1.36,3.27c0.62,3.64,2.37,6.41,5.53,8.37c0.65,0.4,0.97,1.34,1.45,2.03
		c-1.04,0.12-2.37,0.72-3.08,0.29c-3.24-1.96-5.67-4.7-6.31-8.61c-0.27-1.64-0.23-3.33-0.33-5
		C129.65,475.98,130.11,475.87,130.57,475.75z"/>
	<path d="M535.59,459.93c-6.55-1.13-13.1-2.25-20.09-3.46c2.49-2.69,16.79-0.43,20.27,2.51
		C535.71,459.3,535.65,459.62,535.59,459.93z"/>
	<path d="M230.31,332.88c2.31,1.54,3.01,3.37,2.96,5.41c-0.06,2.39-0.33,4.78-0.75,7.13c-0.12,0.68-1.06,1.22-1.63,1.82
		c-0.55-0.73-1.58-1.47-1.55-2.17C229.51,341.24,229.93,337.41,230.31,332.88z"/>
	<path d="M287.49,414.1c-4.4-4.07-8.8-8.14-13.37-12.35C277.89,401.75,286.96,409.53,287.49,414.1z"/>
	<path d="M243.45,283.14c-0.26,2.99-0.44,5.99-0.86,8.95c-0.07,0.53-1.12,0.91-1.72,1.37c-0.41-0.54-1.2-1.11-1.16-1.62
		c0.19-2.58,0.5-5.17,0.99-7.71c0.12-0.61,1.06-1.06,1.63-1.59C242.7,282.73,243.08,282.94,243.45,283.14z"/>
	<path d="M96.77,360.07c3.85-0.58,7,0.78,8.13,3.16c0.25,0.54,0.3,1.65-0.02,1.88c-0.67,0.5-2.06,1.08-2.41,0.78
		C100.56,364.2,98.86,362.26,96.77,360.07z"/>
	<path d="M449.87,422.41c3.88-1.18,8.23-0.13,9.62,2.24c0.33,0.56,0.28,1.35,0.4,2.03c-0.58,0.1-1.29,0.47-1.71,0.26
		C455.48,425.55,452.83,424.04,449.87,422.41z"/>
	<path d="M261.8,250.44c3.88,0.75,5.22,6.49,2.23,10.44C263.19,257,262.53,253.88,261.8,250.44z"/>
	<path d="M340.71,393.98c-0.62,0.12-1.63,0.65-2.14,0.34c-1.51-0.92-2.96-2.03-4.11-3.35c-0.33-0.38,0.21-2.31,0.73-2.5
		C336.72,387.93,340.79,391.65,340.71,393.98z"/>
	<path d="M638.39,424.23c-0.7,1.95-1.21,3.66-1.96,5.25c-0.2,0.43-1.15,0.52-1.75,0.76c-0.03-0.63-0.12-1.26-0.07-1.88
		c0.08-1.14,0.19-2.28,0.38-3.4c0.14-0.84,0.31-1.73,0.73-2.43c0.19-0.31,1.3-0.48,1.55-0.24
		C637.81,422.82,638.06,423.63,638.39,424.23z"/>
	<path d="M329.1,328.02c-1.34-2.84-5.04-3.29-4.63-7.06C328.49,322.15,329.97,324.17,329.1,328.02z"/>
	<path d="M239.98,278.34c0.19-1.5,0.18-3.07,0.67-4.47c0.19-0.53,1.51-0.67,2.31-0.98c0.12,1.33,0.57,2.75,0.24,3.96
		c-0.23,0.86-1.51,1.43-2.33,2.12C240.58,278.76,240.28,278.55,239.98,278.34z"/>
	<path d="M360.84,350.96c1.1,1.35,1.81,2.23,2.53,3.1c-0.63,0.4-1.45,1.26-1.85,1.1c-0.91-0.37-1.7-1.18-2.33-1.97
		C359.08,353.05,359.98,352.11,360.84,350.96z"/>
	<path d="M343.74,453.25c-0.95-0.66-1.64-1.14-2.33-1.61c0.76-0.52,1.5-1.39,2.3-1.46c0.64-0.06,1.37,0.85,2.07,1.32
		C345.16,452.02,344.55,452.55,343.74,453.25z"/>
	<path d="M405.38,426.9c0.88-1.57,1.47-3.43,2.69-4.67c8.17-8.28,16.45-16.46,22.79-26.32c2.88-4.48,5.58-9.06,8.49-13.52
		c0.39-0.59,1.52-0.7,2.3-1.04c0.21,0.72,0.78,1.57,0.58,2.15c-0.62,1.76-1.36,3.54-2.37,5.11c-7.72,12.07-17.09,22.81-26.95,33.15
		c-0.94,0.99-1.7,2.14-2.68,3.09c-1.12,1.08-2.39,2.01-3.59,3.01C406.22,427.54,405.8,427.22,405.38,426.9z"/>
	<path d="M356.27,424.09c4.38-2.58,8.87-4.99,13.1-7.78c8.34-5.5,15.77-12.04,21.87-20.02c0.35-0.46,1.08-0.64,1.63-0.95
		c0.26,0.73,0.93,1.65,0.69,2.15c-0.66,1.4-1.55,2.77-2.61,3.9c-8.7,9.3-18.75,16.77-30.41,21.99c-1.29,0.58-2.69,0.92-4.04,1.38
		C356.43,424.53,356.35,424.31,356.27,424.09z"/>
	<path d="M380.37,395.79c-0.15,0.91,0.01,2.05-0.48,2.7c-7.5,9.86-16.18,18.4-27.3,24.17c-0.83,0.43-1.79,0.6-2.86,0.56
		c11.26-7.89,21.44-16.81,29.77-27.73C379.79,395.6,380.08,395.7,380.37,395.79z"/>
	<path d="M456.27,130.02c2.23-0.36,2.93,0.72,2.72,2.85c-1.19,11.98,0.22,24.06-1.84,36.07c-0.99,5.79,0.08,11.93,0.12,17.92
		c0.01,1.88-0.29,3.75-0.45,5.63c-0.32-0.01-0.63-0.01-0.95-0.02c-0.1-0.86-0.18-1.71-0.3-2.57c-1.04-7.78-2.13-15.55-3.07-23.34
		c-0.1-0.84,0.67-1.77,1.02-2.67c0.34-0.88,0.92-1.76,0.96-2.66c0.52-10.18,0.96-20.37,1.43-30.55
		C455.93,130.5,456.11,130.32,456.27,130.02z"/>
	<path d="M500.59,248.05c0.4-11.82,4.29-23.47,1.78-35.49c2.72-0.55,3.13,1.07,3.16,2.63c0.08,4.09,0.26,8.21-0.12,12.27
		c-0.57,6.05-1.55,12.07-2.44,18.08c-0.15,0.99-0.74,1.91-1.13,2.86C501.42,248.29,501.01,248.17,500.59,248.05z"/>
	<path d="M117.85,90.91c1.22,5.97,2.8,11.9,3.56,17.93c0.92,7.37,1.16,14.83,1.68,22.26c0.04,0.52,0.14,1.12-0.06,1.56
		c-0.38,0.85-0.95,1.61-1.45,2.4c-0.5-0.79-1.39-1.55-1.45-2.37c-0.34-4.61-0.28-9.26-0.74-13.85c-0.79-7.94-1.87-15.86-2.81-23.79
		c-0.15-1.29-0.16-2.59-0.23-3.88C116.86,91.08,117.36,90.99,117.85,90.91z"/>
	<path d="M207.91,172.4c-10.16-0.64-20.31-1.37-30.48-1.82c-2.06-0.09-4.14,1.08-6.25,1.29c-9.68,0.96-19.35,3.26-29.09,0.74
		c-1.86-0.48-3.6-1.66-5.2-2.8c-1.58-1.13-1.08-2.52,0.48-3.15c4.57-1.86,9.2-3.56,13.83-5.27c8.5-3.14,17.39-2.45,26.16-2.3
		c12.21,0.21,24.4,2.02,36.65,0.3c6.32-0.89,12.56-0.32,18.75,1.29c2.42,0.63,5.04,0.52,7.46,1.16c1.25,0.33,2.59,1.38,3.22,2.49
		c0.29,0.5-0.9,2.04-1.65,2.91c-3.1,3.59-7.6,4.11-11.78,4.37c-7.33,0.45-14.71,0.13-22.07,0.13
		C207.94,171.95,207.92,172.17,207.91,172.4z M141.78,168.58c0.06,0.39,0.12,0.78,0.18,1.16c0.98,0.16,1.98,0.25,2.94,0.49
		c6.4,1.58,12.73-0.21,19.09-0.39c2.66-0.07,5.47,0.34,7.59-2.12c0.41-0.48,1.78-0.24,2.69-0.17c7.43,0.56,14.84,1.4,22.27,1.68
		c6.91,0.26,13.83-0.14,20.75-0.1c6.63,0.04,13.22-0.18,19.62-2.12c0.68-0.21,1.21-0.93,1.81-1.41c-0.41-0.41-0.77-1.11-1.23-1.17
		c-6.52-0.96-13.04-2.42-19.59-2.6c-11.84-0.33-23.71,0.21-35.56,0.2c-10.38-0.01-20.83-1.04-30.9,2.45
		C148.14,165.62,145,167.2,141.78,168.58z"/>
	<path d="M47.34,299.15c-2.78,0-5.04,0-7.47,0C41.59,295.9,44.91,295.76,47.34,299.15z"/>
</g>
</svg>
